<svg xmlns="http://www.w3.org/2000/svg" width="922" height="825" viewBox="0 0 922 825">
        <g transform="translate(0 -56)">
          <g transform="rotate(-173 461.5 412.5)"><path fill="none" stroke="#f4f0ea" stroke-miterlimit="20" stroke-width="5" d="M319.849 777.58c-95.048 38.73-192.464 10.653-225.143-28.373-32.68-39.027-68-52.822-63.966-207.376 4.04-154.553-18.248-214.648-28.315-342.317C-7.641 71.844 61.902 39.48 131.543-3.357 201.183-46.19 370.627-30.7 522.21 34.114c151.585 64.818 306.422 156.307 366.56 246.113 60.137 89.806 41.77 141.693-25.461 210.192-67.232 68.501-448.414 248.424-543.461 287.16z" /></g>
          <g transform="rotate(-172 463.5 415)"><path fill="#f4f0ea" d="M332.697 743.366c-86.535 35.26-175.228 9.698-204.98-25.833-29.754-35.531-61.91-48.091-58.238-188.804 3.678-140.713-16.613-195.426-25.78-311.662C34.535 100.83 97.851 71.365 161.255 32.364 224.658-6.634 378.928 7.47 516.937 66.48c138.01 59.013 278.981 142.309 333.733 224.072 54.752 81.764 38.03 129.004-23.18 191.369-61.212 62.366-408.257 226.177-494.793 261.445z" /></g>
        </g>
      </svg>