<svg xmlns="http://www.w3.org/2000/svg" width="725" height="325" viewBox="0 0 725 325"><g><g><path fill="#f4f0ea" d="M99.835 323.943c-5.203-24.82-7.458-55.344-9.701-92.094C84.758 143.732 78.974 98.623 62.77.943h-6.084c16.288 98.12 22.084 143.13 27.461 231.272 2.217 36.33 4.457 66.73 9.523 91.728zm348.697 0c93.552-60.745 226.273-168.76 258.497-235.402 17.83-36.87 21.017-64.265 12.965-87.598h-6.334c8.467 22.46 5.5 48.738-12.032 84.989-30.102 62.25-159.478 171.804-264.146 238.011z"/></g><g><path fill="#f4f0ea" d="M25.003 324.151C11.196 324.151 0 312.956 0 299.15V26.151C0 12.345 11.196 1.15 25.003 1.15h545.486c7.57 22.809 3.86 49.1-13.16 84.295-31.703 65.559-165.035 175.583-264.419 238.707z"/></g></g></svg>