<svg xmlns="http://www.w3.org/2000/svg" width="2066" height="1993" viewBox="0 0 2066 1993">
            <defs>
              <linearGradient id="qe3ja" x1="2080.94" x2="815.68" y1="2205.58" y2="-72.62" gradientUnits="userSpaceOnUse">
                <stop offset="0" stop-color="#fff" stop-opacity="0" />
                <stop offset="1" stop-color="#fff" />
              </linearGradient>
            </defs>
            <g transform="translate(0 -161)">
              <g opacity=".33" transform="rotate(-172 1011 948)"><path fill="#fff" d="M750.673 1655.327c-169.613 69.112-316.92 11.716-401.771-50.634-84.854-62.345-168.348-147.035-161.15-422.838 7.209-275.803 6.257-388.498-11.71-616.325-17.963-227.83-23.958-366.263 100.316-442.705 124.274-76.438 426.649-48.795 697.151 66.867 270.506 115.669 676.91 359.612 784.228 519.872 107.316 160.26 74.541 252.853-45.436 375.09-119.975 122.24-792.015 501.546-961.628 570.673z" /></g>
              <g opacity=".76" transform="rotate(-172 1033 996.5)">
                <path fill="url(#qe3ja)" d="M387.733-54.28c180.482 0 397.586 48.571 595.644 133.255 351.531 150.314 829.37 446.463 952.996 631.083 131.508 196.38 84.87 304.343-54.368 446.203-145.758 148.513-963.447 609.99-1170.417 694.34-61.43 25.032-124.398 37.725-187.153 37.725-139.482.003-244.225-61.655-294.247-98.413-102.366-75.209-201.58-176.416-192.918-508.37 8.692-332.586 7.869-471.775-14.314-753.077C.91 248.831-4.479 86.26 141.035-3.246 195.315-36.633 280.62-54.28 387.733-54.28zM524.42 1906.673h.016c65.14-.003 130.437-13.155 194.075-39.083 207.863-84.716 1029.74-548.858 1176.588-698.479 142.934-145.63 194.277-263.543 56.518-469.257C1814.59 495.22 1296.396 192.87 990.589 62.105 790.336-23.516 570.602-72.624 387.733-72.624c-110.507 0-199.135 18.588-256.308 53.75C-23.203 76.243-17.941 243.129 4.669 529.912c22.116 280.468 22.935 419.312 14.264 751.157-8.894 340.8 94.119 445.548 200.394 523.628 51.829 38.084 160.389 101.977 305.092 101.977z" />
              </g>
            </g>
          </svg>