<svg xmlns="http://www.w3.org/2000/svg" xmlns:xlink="http://www.w3.org/1999/xlink" width="1263.957" height="1229.089" viewBox="0 0 1263.957 1229.089">
  <defs>
    <linearGradient id="linear-gradient" x1="0.589" y1="0.179" x2="0.99" y2="0.529" gradientUnits="objectBoundingBox">
      <stop offset="0" stop-color="#f4f0ea" stop-opacity="0"/>
      <stop offset="1" stop-color="#f4f0ea"/>
    </linearGradient>
  </defs>
  <g id="Group_9165" data-name="Group 9165" transform="translate(0)">
    <path id="Path_210" data-name="Path 210" d="M-7079.608-11349.156h.014c39.039,0,78.171,7.882,116.312,23.423,124.75,50.842,617.991,329.384,706.111,419.168,85.614,87.227,116.37,157.851,33.869,281.051-82.2,122.759-393.153,304.172-576.665,382.642-120.146,51.372-251.975,80.836-361.684,80.836-66.241,0-119.352-11.131-153.591-32.19-92.57-56.942-89.408-157-75.85-328.951,13.279-168.386,13.771-251.742,8.564-450.958-5.333-204.329,56.4-267.112,120.086-313.905C-7231.382-11310.866-7166.324-11349.156-7079.608-11349.156Zm-82.043,1177.119c108.407,0,238.8-29.17,357.752-80.031,211.08-90.257,498.024-268.109,572.288-379.011,79.134-118.174,51.076-183.131-32.7-268.482-87.526-89.179-578.484-366.268-702.748-416.911-36.936-15.05-74.8-22.683-112.538-22.684-83.87,0-146.85,37.072-176.927,59.173-61.556,45.228-121.217,106.077-116.01,305.585,5.217,199.623,4.723,283.165-8.592,452-13.251,168.057-16.481,265.763,71.121,319.648C-7277.341-10182.655-7226.042-10172.037-7161.652-10172.037Z" transform="translate(7039.031 11600.437) rotate(2)" opacity="0.545" fill="url(#linear-gradient)"/>
    <path id="Path_21" data-name="Path 21" d="M-7046.957-11325.508c-100.51-40.955-187.8-6.943-238.082,30s-99.76,87.131-95.494,250.566,3.707,230.217-6.939,365.223-14.2,217.041,59.445,262.34,252.824,28.914,413.119-39.625,401.125-213.1,464.719-308.066,44.172-149.836-26.924-222.271S-6946.447-11284.545-7046.957-11325.508Z" transform="translate(8979.811 10416.188) rotate(-8)" fill="#f4f0ea"/>
  </g>
</svg>
