<svg xmlns="http://www.w3.org/2000/svg" width="377" height="498" viewBox="0 0 377 498"><defs><mask id="ykn5b" width="2" height="2" x="-1" y="-1"><path fill="#fff" d="M22 0h342v471H22z"/><path d="M22.505 470.332a2041.75 2041.75 0 0 0 15.787-11.418 2101.948 2101.948 0 0 0 63.259-48.085c21.245-16.792 41.897-33.802 61.383-50.549 20.21-17.37 39.289-34.573 56.709-51.127 18.181-17.282 34.75-34.039 49.233-49.806 31.249-34.022 53.057-63.594 64.809-87.896 6.14-12.7 11.186-24.822 14.995-36.018 3.79-11.146 6.511-21.849 8.095-31.804 3.115-19.608 2.074-37.24-3.18-53.919-4.995-15.843-13.89-31.045-27.2-46.478A205.62 205.62 0 0 0 324 .504h6.643c13.505 15.771 22.575 31.38 27.718 47.706a110.18 110.18 0 0 1 3.264 13.114 114.72 114.72 0 0 1 1.67 13.692c.286 4.656.296 9.478.037 14.336a146.232 146.232 0 0 1-1.617 15.06c-1.628 10.237-4.42 21.214-8.3 32.628-3.877 11.394-8.999 23.704-15.23 36.588-11.965 24.743-34.045 54.722-65.628 89.1-14.56 15.853-31.203 32.689-49.472 50.05-17.479 16.61-36.62 33.868-56.892 51.293-19.538 16.796-40.244 33.847-61.54 50.683A2116.87 2116.87 0 0 1 41.24 462.95a2142.493 2142.493 0 0 1-10.17 7.382z"/></mask><filter id="ykn5a" width="412" height="561" x="-13" y="-35" filterUnits="userSpaceOnUse"><feOffset dy="20" in="SourceGraphic" result="FeOffset1096Out"/><feGaussianBlur in="FeOffset1096Out" result="FeGaussianBlur1097Out" stdDeviation="10 10"/></filter></defs><g><g opacity=".41"><g filter="url(#ykn5a)"><path fill="none" d="M22.505 470.332a2041.75 2041.75 0 0 0 15.787-11.418 2101.948 2101.948 0 0 0 63.259-48.085c21.245-16.792 41.897-33.802 61.383-50.549 20.21-17.37 39.289-34.573 56.709-51.127 18.181-17.282 34.75-34.039 49.233-49.806 31.249-34.022 53.057-63.594 64.809-87.896 6.14-12.7 11.186-24.822 14.995-36.018 3.79-11.146 6.511-21.849 8.095-31.804 3.115-19.608 2.074-37.24-3.18-53.919-4.995-15.843-13.89-31.045-27.2-46.478A205.62 205.62 0 0 0 324 .504h6.643c13.505 15.771 22.575 31.38 27.718 47.706a110.18 110.18 0 0 1 3.264 13.114 114.72 114.72 0 0 1 1.67 13.692c.286 4.656.296 9.478.037 14.336a146.232 146.232 0 0 1-1.617 15.06c-1.628 10.237-4.42 21.214-8.3 32.628-3.877 11.394-8.999 23.704-15.23 36.588-11.965 24.743-34.045 54.722-65.628 89.1-14.56 15.853-31.203 32.689-49.472 50.05-17.479 16.61-36.62 33.868-56.892 51.293-19.538 16.796-40.244 33.847-61.54 50.683A2116.87 2116.87 0 0 1 41.24 462.95a2142.493 2142.493 0 0 1-10.17 7.382z" mask="url(&quot;#ykn5b&quot;)"/><path fill-opacity=".1" d="M22.505 470.332a2041.75 2041.75 0 0 0 15.787-11.418 2101.948 2101.948 0 0 0 63.259-48.085c21.245-16.792 41.897-33.802 61.383-50.549 20.21-17.37 39.289-34.573 56.709-51.127 18.181-17.282 34.75-34.039 49.233-49.806 31.249-34.022 53.057-63.594 64.809-87.896 6.14-12.7 11.186-24.822 14.995-36.018 3.79-11.146 6.511-21.849 8.095-31.804 3.115-19.608 2.074-37.24-3.18-53.919-4.995-15.843-13.89-31.045-27.2-46.478A205.62 205.62 0 0 0 324 .504h6.643c13.505 15.771 22.575 31.38 27.718 47.706a110.18 110.18 0 0 1 3.264 13.114 114.72 114.72 0 0 1 1.67 13.692c.286 4.656.296 9.478.037 14.336a146.232 146.232 0 0 1-1.617 15.06c-1.628 10.237-4.42 21.214-8.3 32.628-3.877 11.394-8.999 23.704-15.23 36.588-11.965 24.743-34.045 54.722-65.628 89.1-14.56 15.853-31.203 32.689-49.472 50.05-17.479 16.61-36.62 33.868-56.892 51.293-19.538 16.796-40.244 33.847-61.54 50.683A2116.87 2116.87 0 0 1 41.24 462.95a2142.493 2142.493 0 0 1-10.17 7.382z"/></g><path fill="#fff" d="M22.505 470.332a2041.75 2041.75 0 0 0 15.787-11.418 2101.948 2101.948 0 0 0 63.259-48.085c21.245-16.792 41.897-33.802 61.383-50.549 20.21-17.37 39.289-34.573 56.709-51.127 18.181-17.282 34.75-34.039 49.233-49.806 31.249-34.022 53.057-63.594 64.809-87.896 6.14-12.7 11.186-24.822 14.995-36.018 3.79-11.146 6.511-21.849 8.095-31.804 3.115-19.608 2.074-37.24-3.18-53.919-4.995-15.843-13.89-31.045-27.2-46.478A205.62 205.62 0 0 0 324 .504h6.643c13.505 15.771 22.575 31.38 27.718 47.706a110.18 110.18 0 0 1 3.264 13.114 114.72 114.72 0 0 1 1.67 13.692c.286 4.656.296 9.478.037 14.336a146.232 146.232 0 0 1-1.617 15.06c-1.628 10.237-4.42 21.214-8.3 32.628-3.877 11.394-8.999 23.704-15.23 36.588-11.965 24.743-34.045 54.722-65.628 89.1-14.56 15.853-31.203 32.689-49.472 50.05-17.479 16.61-36.62 33.868-56.892 51.293-19.538 16.796-40.244 33.847-61.54 50.683A2116.87 2116.87 0 0 1 41.24 462.95a2142.493 2142.493 0 0 1-10.17 7.382z"/></g><g opacity=".19"><path fill="#fff" d="M.001 452.7V17.5C.001 8.11 7.612.498 16.999.498h278.322c40.037 45.753 46.22 94.244 8.6 172.034-37.686 77.93-172.097 198.184-299.917 291.126A16.93 16.93 0 0 1 0 452.7z"/></g></g></svg>