<svg xmlns="http://www.w3.org/2000/svg" width="453" height="315" viewBox="0 0 453 315"><defs><mask id="ukw3b" width="2" height="2" x="-1" y="-1"><path fill="#fff" d="M316 0h124v288H316z"/><path d="M316.847 288.007c10.017-10.006 19.393-19.758 28.028-29.158 31.249-34.022 53.057-63.594 64.809-87.896 6.14-12.7 11.186-24.822 14.995-36.018 3.79-11.146 6.511-21.85 8.095-31.804 3.115-19.608 2.074-37.24-3.18-53.92-4.995-15.842-13.89-31.044-27.2-46.477A205.62 205.62 0 0 0 400 .006h6.643c13.505 15.771 22.575 31.38 27.718 47.706a110.18 110.18 0 0 1 3.264 13.114 114.72 114.72 0 0 1 1.67 13.692c.286 4.656.296 9.478.037 14.336a146.232 146.232 0 0 1-1.617 15.06c-1.628 10.237-4.42 21.214-8.3 32.628-3.877 11.394-8.999 23.704-15.23 36.588-11.965 24.743-34.045 54.722-65.628 89.1-7.662 8.342-15.9 16.957-24.65 25.777z"/></mask><filter id="ukw3a" width="194" height="378" x="281" y="-35" filterUnits="userSpaceOnUse"><feOffset dy="20" in="SourceGraphic" result="FeOffset1071Out"/><feGaussianBlur in="FeOffset1071Out" result="FeGaussianBlur1072Out" stdDeviation="10 10"/></filter></defs><g><g opacity=".41"><g filter="url(#ukw3a)"><path fill="none" d="M316.847 288.007c10.017-10.006 19.393-19.758 28.028-29.158 31.249-34.022 53.057-63.594 64.809-87.896 6.14-12.7 11.186-24.822 14.995-36.018 3.79-11.146 6.511-21.85 8.095-31.804 3.115-19.608 2.074-37.24-3.18-53.92-4.995-15.842-13.89-31.044-27.2-46.477A205.62 205.62 0 0 0 400 .006h6.643c13.505 15.771 22.575 31.38 27.718 47.706a110.18 110.18 0 0 1 3.264 13.114 114.72 114.72 0 0 1 1.67 13.692c.286 4.656.296 9.478.037 14.336a146.232 146.232 0 0 1-1.617 15.06c-1.628 10.237-4.42 21.214-8.3 32.628-3.877 11.394-8.999 23.704-15.23 36.588-11.965 24.743-34.045 54.722-65.628 89.1-7.662 8.342-15.9 16.957-24.65 25.777z" mask="url(&quot;#ukw3b&quot;)"/><path fill-opacity=".1" d="M316.847 288.007c10.017-10.006 19.393-19.758 28.028-29.158 31.249-34.022 53.057-63.594 64.809-87.896 6.14-12.7 11.186-24.822 14.995-36.018 3.79-11.146 6.511-21.85 8.095-31.804 3.115-19.608 2.074-37.24-3.18-53.92-4.995-15.842-13.89-31.044-27.2-46.477A205.62 205.62 0 0 0 400 .006h6.643c13.505 15.771 22.575 31.38 27.718 47.706a110.18 110.18 0 0 1 3.264 13.114 114.72 114.72 0 0 1 1.67 13.692c.286 4.656.296 9.478.037 14.336a146.232 146.232 0 0 1-1.617 15.06c-1.628 10.237-4.42 21.214-8.3 32.628-3.877 11.394-8.999 23.704-15.23 36.588-11.965 24.743-34.045 54.722-65.628 89.1-7.662 8.342-15.9 16.957-24.65 25.777z"/></g><path fill="#fff" d="M316.847 288.007c10.017-10.006 19.393-19.758 28.028-29.158 31.249-34.022 53.057-63.594 64.809-87.896 6.14-12.7 11.186-24.822 14.995-36.018 3.79-11.146 6.511-21.85 8.095-31.804 3.115-19.608 2.074-37.24-3.18-53.92-4.995-15.842-13.89-31.044-27.2-46.477A205.62 205.62 0 0 0 400 .006h6.643c13.505 15.771 22.575 31.38 27.718 47.706a110.18 110.18 0 0 1 3.264 13.114 114.72 114.72 0 0 1 1.67 13.692c.286 4.656.296 9.478.037 14.336a146.232 146.232 0 0 1-1.617 15.06c-1.628 10.237-4.42 21.214-8.3 32.628-3.877 11.394-8.999 23.704-15.23 36.588-11.965 24.743-34.045 54.722-65.628 89.1-7.662 8.342-15.9 16.957-24.65 25.777z"/></g><g opacity=".19"><path fill="#fff" d="M16.998 289.002C7.611 289.002 0 281.391 0 272V17.002C0 7.612 7.611 0 16.998 0h354.324c40.037 45.753 46.22 94.244 8.6 172.034-16.02 33.128-49.509 73.895-92.549 116.968z"/></g></g></svg>