<svg xmlns="http://www.w3.org/2000/svg" width="946" height="787" viewBox="0 0 946 787"><defs><linearGradient id="gsfia" x1="558.83" x2="936.84" y1="46.61" y2="365.93" gradientUnits="userSpaceOnUse"><stop offset="0" stop-color="#f4f0ea" stop-opacity="0"/><stop offset="1" stop-color="#f4f0ea"/></linearGradient></defs><g><g opacity=".54" transform="rotate(2 470 331)"><path fill="url(#gsfia)" d="M186.245 788.888c-49.567 0-89.058-8.174-114.202-23.64-67.437-41.48-64.95-116.696-54.75-246.067 10.25-129.975 10.631-194.285 6.615-347.957C19.9 17.642 65.828-29.2 113.213-64.017c23.154-17.013 71.636-45.555 136.2-45.552 29.052.001 58.2 5.877 86.633 17.462 95.659 38.986 473.601 252.291 540.98 320.941 64.488 65.705 86.088 115.71 25.17 206.68-57.169 85.373-278.06 222.285-440.551 291.765-91.568 39.154-191.947 61.609-275.4 61.609zm63.158-906.155c-66.754 0-116.836 29.476-140.747 47.047C59.629-34.2 12.107 14.132 16.213 171.426c4.008 153.358 3.63 217.526-6.593 347.15-10.437 132.37-12.872 209.395 58.39 253.23 26.357 16.212 67.243 24.78 118.235 24.78 84.455 0 185.937-22.682 278.427-62.228 141.268-60.407 380.639-200.06 443.92-294.56 63.51-94.84 39.834-149.208-26.073-216.355-67.835-69.116-447.535-283.54-543.569-322.679-29.36-11.963-59.484-18.03-89.537-18.031h-.01z"/></g><g transform="rotate(-8 468 369.5)"><path fill="#f4f0ea" d="M363.77-12.498C286.399-44.025 219.2-17.842 180.495 10.6c-38.709 28.44-76.796 67.073-73.512 192.888 3.288 125.813 2.854 177.222-5.342 281.15-8.195 103.93-10.93 167.08 45.761 201.951 56.69 34.869 194.626 22.259 318.022-30.503C588.82 603.32 774.211 492.04 823.166 418.934c48.955-73.105 34.004-115.345-20.726-171.106-54.73-55.763-361.296-228.792-438.67-260.326z"/></g></g></svg>