<svg xmlns="http://www.w3.org/2000/svg" width="562" height="477" viewBox="0 0 562 477"><g><g><g transform="rotate(-15 273.695 203.325)"><path fill="#f9d480" d="M63.105 39.13c24.638-43.334 65.15-62.55 136.714-46.3C271.383 9.083 375.29 74.6 412.765 105.364c37.474 30.763 120.59 107.885 114.692 162.638-5.9 54.754-57.673 92.497-210.414 128.701-152.74 36.205-261.559 31.265-286.558-28.4-25-59.665-.432-99.635 10.632-171.66 11.064-72.023-2.65-114.177 21.988-157.512z"/></g><g transform="rotate(-15 273.7 203.33)"><path fill="none" stroke="#fff" stroke-miterlimit="20" stroke-opacity=".5" stroke-width="8" d="M46.376 26.087C72.97-20.689 116.7-41.432 193.95-23.89 271.2-6.349 383.36 64.374 423.812 97.582c40.45 33.206 130.17 116.455 123.802 175.556-6.367 59.104-62.254 99.846-227.128 138.925-164.873 39.081-282.336 33.748-309.322-30.656-26.985-64.403-.466-107.55 11.477-185.296 11.943-77.744-2.86-123.248 23.735-170.024z"/></g></g></g></svg>