<svg xmlns="http://www.w3.org/2000/svg" width="663" height="633" viewBox="0 0 663 633"><g><g transform="rotate(-13 333.5 311)"><path fill="#f9d480" d="M265.285 23.969c-55.446-22.593-103.601-3.83-131.34 16.552-27.739 20.38-55.033 48.066-52.68 138.226 2.357 90.161 2.046 127.001-3.828 201.478-5.872 74.478-7.832 119.733 32.794 144.722 40.625 24.987 139.472 15.95 227.9-21.86C426.56 465.276 559.414 385.53 594.496 333.14c35.082-52.389 24.368-82.658-14.852-122.617-39.22-39.96-258.912-163.957-314.359-186.554z"/></g><g opacity=".66" transform="rotate(-13 331.5 317)"><path fill="none" stroke="#fff" stroke-miterlimit="20" stroke-width="10" d="M251.186-20.665c-65.253-26.589-121.925-4.507-154.569 19.48C63.972 22.801 31.851 55.382 34.62 161.489c2.773 106.107 2.407 149.463-4.505 237.113-6.911 87.65-9.218 140.908 38.593 170.317 47.81 29.407 164.14 18.772 268.208-25.725 104.069-44.5 260.42-138.35 301.708-200.005 41.286-61.655 28.677-97.277-17.48-144.304C574.987 151.856 316.44 5.93 251.186-20.665z"/></g></g></svg>