<svg xmlns="http://www.w3.org/2000/svg" width="61" height="61" viewBox="0 0 61 61">
  <g id="Group_9105" data-name="Group 9105" transform="translate(-187 -611)">
    <circle id="Ellipse_552" data-name="Ellipse 552" cx="30.5" cy="30.5" r="30.5" transform="translate(187 611)" fill="#f2a900"/>
    <path id="Path_68331" data-name="Path 68331" d="M22.627-18.07A13.089,13.089,0,0,0,13.3-21.937,13.2,13.2,0,0,0,.113-8.75,13.2,13.2,0,0,0,1.871-2.156L0,4.676,6.992,2.84a13.147,13.147,0,0,0,6.3,1.6H13.3A13.315,13.315,0,0,0,26.613-8.744,13.24,13.24,0,0,0,22.627-18.07ZM13.3,2.222A10.942,10.942,0,0,1,7.717.7l-.4-.238L3.172,1.545,4.277-2.5l-.261-.416A10.925,10.925,0,0,1,2.341-8.75,10.976,10.976,0,0,1,13.307-19.71,10.864,10.864,0,0,1,21.053-16.5a11,11,0,0,1,3.333,7.752A11.084,11.084,0,0,1,13.3,2.222Zm6.012-8.21c-.327-.166-1.948-.962-2.251-1.069s-.523-.166-.743.166-.849,1.069-1.046,1.3-.386.25-.713.083a8.97,8.97,0,0,1-4.485-3.921c-.339-.582.339-.541.968-1.8a.611.611,0,0,0-.03-.576c-.083-.166-.743-1.788-1.016-2.447-.267-.642-.541-.552-.743-.564s-.41-.012-.63-.012a1.221,1.221,0,0,0-.879.41,3.7,3.7,0,0,0-1.152,2.75,6.456,6.456,0,0,0,1.343,3.41,14.725,14.725,0,0,0,5.632,4.978c2.091.9,2.911.98,3.956.826a3.375,3.375,0,0,0,2.222-1.568,2.756,2.756,0,0,0,.19-1.568C19.859-5.744,19.639-5.827,19.312-5.987Z" transform="translate(204.506 649.506)" fill="#fff"/>
  </g>
</svg>
