<svg xmlns="http://www.w3.org/2000/svg" xmlns:xlink="http://www.w3.org/1999/xlink" width="82.434" height="80.934" viewBox="0 0 82.434 80.934">
  <defs>
    <clipPath id="clip-path">
      <rect id="Rectangle_1909" data-name="Rectangle 1909" width="21.216" height="38.863" transform="translate(0)" fill="#f2a927"/>
    </clipPath>
  </defs>
  <g id="Group_9122" data-name="Group 9122" transform="translate(-1432.002 -670.891)">
    <path id="Path_68252" data-name="Path 68252" d="M-7366.1-11342.619a18.22,18.22,0,0,0-18.659,2.475c-3.941,3.047-7.818,7.184-7.484,20.66a248.961,248.961,0,0,1-.544,30.113c-.834,11.133-1.113,17.895,4.658,21.631s19.815,2.383,32.378-3.268,31.438-17.57,36.422-25.4,3.461-12.355-2.11-18.328S-7358.227-11339.24-7366.1-11342.619Z" transform="translate(-9431.269 8647.711) rotate(87)" fill="#f4f0ea"/>
    <g id="Group_9112" data-name="Group 9112" transform="translate(1463.001 686.568)" opacity="0.722" clip-path="url(#clip-path)">
      <path id="Path_68253" data-name="Path 68253" d="M2503.525,128.9h-5.036c-5.651,0-9.319,3.748-9.319,9.557v4.4h-5.076a.8.8,0,0,0-.793.793v6.385a.8.8,0,0,0,.793.793h5.076v16.12a.8.8,0,0,0,.793.793h6.6a.8.8,0,0,0,.793-.793V150.83h5.928a.8.8,0,0,0,.793-.793v-6.385a.72.72,0,0,0-.238-.555.834.834,0,0,0-.555-.238h-5.928v-3.748c0-1.8.437-2.716,2.776-2.716h3.391a.8.8,0,0,0,.793-.793v-5.929a.792.792,0,0,0-.793-.773Zm0,0" transform="translate(-2483.319 -128.94)" fill="#f2a927"/>
    </g>
  </g>
</svg>
