<svg xmlns="http://www.w3.org/2000/svg" width="251" height="130" viewBox="0 0 251 130">
              <g>
                <g transform="translate(0 4)">
                  <g>
                    <path
                      fill="#f8d37d"
                      d="M147.737 110.788c.55 0 1.131.036 1.728.106a4.02 4.02 0 0 0 3.694-1.594 26.425 26.425 0 0 1 7.886-7.037l-1.688 22.48h-28.4c2.308-7.079 10.062-13.955 16.78-13.955zm-18.702-36.663V58.46l34.948 4.652-.482 6.424zM184.238 50.9l11.748 6.239 5.075 67.604h-33.646l5.074-67.604zm-7.788-39.818h15.663l-4.34 32.598-1.651-.877a4.018 4.018 0 0 0-3.768 0l-1.571.834zm63.608 47.38v15.663l-35.09-4.671-.47-6.26zm-23.43 49.327c0 .702-.053 1.426-.156 2.151a4.017 4.017 0 0 0 5.23 4.383 9.157 9.157 0 0 1 2.858-.457c5.055 0 9.168 4.113 9.168 9.169 0 .575-.055 1.148-.16 1.708h-24.45L206.78 93.59a15.083 15.083 0 0 1 9.848 14.198zm25.044 16.954c.056-.567.092-1.137.092-1.708 0-9.48-7.707-17.193-17.183-17.204a23.117 23.117 0 0 0-5.958-13.647 23.13 23.13 0 0 0-12.481-7.1l-.56-7.442 37.963 5.053a4.017 4.017 0 0 0 4.548-3.982v-24.84a4.018 4.018 0 0 0-4.548-3.982l-39.649 5.278-.063-.841a4.019 4.019 0 0 0-2.122-3.248l-6.366-3.38 5.339-40.105a4.018 4.018 0 0 0-3.983-4.548h-24.84a4.018 4.018 0 0 0-3.982 4.548l5.333 40.062-6.448 3.423a4.019 4.019 0 0 0-2.122 3.248l-.057.76-39.037-5.197A4.02 4.02 0 0 0 121 53.873v24.84a4.019 4.019 0 0 0 4.548 3.982l37.338-4.97-1.148 15.296a33.923 33.923 0 0 0-13.64 9.736 20.406 20.406 0 0 0-.362-.003c-12.39 0-25.496 13.368-25.496 26.007 7.129-3.153 1.799 4.017 119.432-4.018z"
                    />
                    <path
                      fill="none"
                      stroke="#fff"
                      stroke-miterlimit="20"
                      stroke-width="5"
                      d="M147.737 110.788c.55 0 1.131.036 1.728.106a4.02 4.02 0 0 0 3.694-1.594 26.425 26.425 0 0 1 7.886-7.037l-1.688 22.48h-28.4c2.308-7.079 10.062-13.955 16.78-13.955zm-18.702-36.663V58.46l34.948 4.652-.482 6.424zM184.238 50.9l11.748 6.239 5.075 67.604h-33.646l5.074-67.604zm-7.788-39.818h15.663l-4.34 32.598-1.651-.877a4.018 4.018 0 0 0-3.768 0l-1.571.834zm63.608 47.38v15.663l-35.09-4.671-.47-6.26zm-23.43 49.327c0 .702-.053 1.426-.156 2.151a4.017 4.017 0 0 0 5.23 4.383 9.157 9.157 0 0 1 2.858-.457c5.055 0 9.168 4.113 9.168 9.169 0 .575-.055 1.148-.16 1.708h-24.45L206.78 93.59a15.083 15.083 0 0 1 9.848 14.198zm25.044 16.954c.056-.567.092-1.137.092-1.708 0-9.48-7.707-17.193-17.183-17.204a23.117 23.117 0 0 0-5.958-13.647 23.13 23.13 0 0 0-12.481-7.1l-.56-7.442 37.963 5.053a4.017 4.017 0 0 0 4.548-3.982v-24.84a4.018 4.018 0 0 0-4.548-3.982l-39.649 5.278-.063-.841a4.019 4.019 0 0 0-2.122-3.248l-6.366-3.38 5.339-40.105a4.018 4.018 0 0 0-3.983-4.548h-24.84a4.018 4.018 0 0 0-3.982 4.548l5.333 40.062-6.448 3.423a4.019 4.019 0 0 0-2.122 3.248l-.057.76-39.037-5.197A4.02 4.02 0 0 0 121 53.873v24.84a4.019 4.019 0 0 0 4.548 3.982l37.338-4.97-1.148 15.296a33.923 33.923 0 0 0-13.64 9.736 20.406 20.406 0 0 0-.362-.003c-12.39 0-25.496 13.368-25.496 26.007 7.129-3.153 1.799 4.017 119.432-4.018z"
                    />
                  </g>
                  <g>
                    <path fill="#f8d37d" d="M184.238 121.112a4.017 4.017 0 0 0 4.017-4.017V106.11a4.018 4.018 0 1 0-8.035 0v10.984a4.018 4.018 0 0 0 4.018 4.017z" />
                    <path fill="none" stroke="#fff" stroke-miterlimit="20" stroke-width="5" d="M184.238 121.112a4.017 4.017 0 0 0 4.017-4.017V106.11a4.018 4.018 0 1 0-8.035 0v10.984a4.018 4.018 0 0 0 4.018 4.017z" />
                  </g>
                </g>
                <g>
                  <g>
                    <g><path fill="none" stroke="#f8d37d" stroke-miterlimit="20" stroke-width="2" d="M23.111 94.88c0-9.247 4.811-13.532 6.916-10.375 4.36 6.616 5.188 18.57-6.916 18.57s-10.9-11.879-6.916-18.57c1.578-2.556 6.916 2.33 6.916 8.871" /></g>
                    <g><path fill="none" stroke="#f8d37d" stroke-miterlimit="20" stroke-width="2" d="M23.111 103.074v22.328" /></g>
                    <g><path fill="none" stroke="#f8d37d" stroke-miterlimit="20" stroke-width="2" d="M23.111 126.154s.752-13.682 15.863-25.26c0 0-7.217 7.97-10.826 18.72-1.955 5.863-3.609 6.54-5.037 6.54z" /></g>
                    <g><path fill="none" stroke="#f8d37d" stroke-miterlimit="20" stroke-width="2" d="M23.863 129.763S23.11 116.08 8 104.503c0 0 7.217 7.893 10.826 18.72 1.88 5.863 3.533 6.54 5.037 6.54z" /></g>
                  </g>
                </g>
                <g>
                  <g>
                    <g><path fill="none" stroke="#f8d37d" stroke-miterlimit="20" stroke-width="2" d="M60.211 90.196c0-10.488 5.458-15.349 7.845-11.767 4.946 7.504 5.884 21.062-7.845 21.062-13.728 0-12.364-13.473-7.845-21.062 1.791-2.9 7.845 2.643 7.845 10.062" /></g>
                    <g><path fill="none" stroke="#f8d37d" stroke-miterlimit="20" stroke-width="2" d="M60.211 99.49v25.326" /></g>
                    <g><path fill="none" stroke="#f8d37d" stroke-miterlimit="20" stroke-width="2" d="M60.211 125.669v0s.853-15.52 17.993-28.651c0 0-8.186 9.038-12.28 21.232-2.216 6.651-4.092 7.419-5.713 7.419z" /></g>
                    <g><path fill="none" stroke="#f8d37d" stroke-miterlimit="20" stroke-width="2" d="M61.064 129.762v0s-.853-15.52-17.992-28.651c0 0 8.186 8.953 12.279 21.232 2.132 6.651 4.008 7.419 5.713 7.419z" /></g>
                  </g>
                </g>
              </g>
            </svg>