<svg xmlns="http://www.w3.org/2000/svg" width="27" height="27" viewBox="0 0 27 27"><defs><clipPath id="t1i0a"><path fill="#fff" d="M0 13.5C0 6.044 6.044 0 13.5 0S27 6.044 27 13.5 20.956 27 13.5 27 0 20.956 0 13.5z"/></clipPath><clipPath id="t1i0b"><path d="M0 13.5C0 6.044 6.044 0 13.5 0S27 6.044 27 13.5 20.956 27 13.5 27 0 20.956 0 13.5z"/></clipPath></defs><g><g><g><path fill="#fff" d="M0 13.5C0 6.044 6.044 0 13.5 0S27 6.044 27 13.5 20.956 27 13.5 27 0 20.956 0 13.5z"/><path fill="none" stroke="#707070" stroke-miterlimit="20" stroke-width="2" d="M0 13.5C0 6.044 6.044 0 13.5 0S27 6.044 27 13.5 20.956 27 13.5 27 0 20.956 0 13.5z" clip-path="url(&quot;#t1i0a&quot;)"/></g><g clip-path="url(#t1i0b)"><path fill="#d90b0b" d="M-1 9V0h29v9z"/></g><g clip-path="url(#t1i0b)"><path fill="#0b478d" d="M-1 27v-9h29v9z"/></g><g clip-path="url(#t1i0b)"><path fill="#fff" d="M-1 18V9h29v9z"/></g></g></g></svg>