<svg xmlns="http://www.w3.org/2000/svg" width="82.509" height="85.566" viewBox="0 0 82.509 85.566">
  <g id="Group_9119" data-name="Group 9119" transform="translate(-1116 -660.914)">
    <path id="Path_68248" data-name="Path 68248" d="M-7365.533-11342.665a19.38,19.38,0,0,0-19.053,2.4c-4.023,2.956-7.983,6.972-7.642,20.052s.3,18.423-.556,29.227-1.136,17.368,4.757,20.994,20.232,2.313,33.06-3.171,26.159-17.892,31.248-25.491,3.535-11.991-2.155-17.788S-7357.49-11339.387-7365.533-11342.665Z" transform="translate(10016.096 10875.836) rotate(-8)" fill="#f4f0ea"/>
    <path id="Path_68249" data-name="Path 68249" d="M180.952,158.543v11.441h-6.642V159.316c0-2.677-.952-4.521-3.351-4.521a3.663,3.663,0,0,0-3.41,2.419,4.488,4.488,0,0,0-.218,1.626v11.143h-6.642s.079-18.083,0-19.947h6.642v2.835c-.02.02-.04.04-.04.059h.04v-.059a6.6,6.6,0,0,1,5.988-3.291c4.342-.02,7.634,2.835,7.634,8.962Zm-27.2-18.143a3.459,3.459,0,1,0-.079,6.9h.04a3.461,3.461,0,1,0,.04-6.9Zm-3.371,29.584h6.642V150.037h-6.642Zm0,0" transform="translate(988.001 547.952)" fill="#f2a927" opacity="0.722"/>
  </g>
</svg>
