<svg xmlns="http://www.w3.org/2000/svg" width="80" height="77" viewBox="0 0 80 77"><g><g transform="rotate(87 40 38.5)"><path fill="#fff" d="M29.677.895C21.801-2.484 14.96.323 11.018 3.37 7.078 6.417 3.2 10.553 3.534 24.03c.335 13.475.29 18.982-.544 30.113-.834 11.133-1.112 17.895 4.659 21.631 5.772 3.734 19.815 2.383 32.378-3.268 12.563-5.65 31.438-17.57 36.422-25.4 4.984-7.83 3.46-12.355-2.11-18.328C68.766 22.805 37.555 4.274 29.677.895z"/></g><g clip-path="url(#clip-cd546f35-0339-456a-806c-fbd3e409d7d2)" opacity=".72"><path fill="#f2a927" d="M50.99 12.57h-5.036c-5.651 0-9.32 3.747-9.32 9.556v4.402h-5.076a.796.796 0 0 0-.793.793v6.385c0 .436.358.793.793.793h5.076v16.12c0 .437.357.794.793.794h6.603a.796.796 0 0 0 .793-.793V34.5h5.929a.795.795 0 0 0 .793-.794v-6.385a.72.72 0 0 0-.238-.555.834.834 0 0 0-.555-.238h-5.929v-3.747c0-1.805.437-2.717 2.776-2.717h3.39a.796.796 0 0 0 .794-.793v-5.928a.792.792 0 0 0-.793-.774z"/></g></g></svg>