<svg xmlns="http://www.w3.org/2000/svg" width="309" height="173" viewBox="0 0 309 173"><g><g><path fill="#f8d37d" d="M66.54 157.798a35.134 35.134 0 0 0-2.365 12.44c1.066.006 1.914.013 2.486.023.032-3.93.768-7.822 2.17-11.493.2-.471.298-.979.289-1.49-.018-1.222-.069-5.323.007-6.834a137.82 137.82 0 0 1 2.43-18.793c1.297 3.68 1.297 9.502 1.297 19.973a1.242 1.242 0 0 0 2.485 0c0-14.333-.006-20.363-3.491-24.44a3.68 3.68 0 0 0-.733-1.212 3.727 3.727 0 0 0-3.264-1.13c-4.27.636-10.459 1.425-16.81 2.057a.944.944 0 0 0-.102.011c-6.386.634-12.927 1.108-17.842 1.108a16.627 16.627 0 0 1-14.424-8.06 3.752 3.752 0 0 0-3.23-1.879h-.982a8.5 8.5 0 0 1-5.334-2.12 1.242 1.242 0 0 0-1.752 1.759 9.232 9.232 0 0 0 3.106 2.009 3.62 3.62 0 0 0-.22.36c-2.076 3.964-6.265 7.381-7.97 8.666a3.727 3.727 0 0 0-1.205 4.413l.497 1.204a3.75 3.75 0 0 0 3.62 2.292 34.093 34.093 0 0 0 11.329-2.236 17.191 17.191 0 0 1 2.936 6.318 65.024 65.024 0 0 1 1.168 12.23 3.706 3.706 0 0 0 3.727 3.62h1.28v9.012a6.38 6.38 0 0 0-3.55 4.655l2.542-.004a3.84 3.84 0 0 1 2.436-2.545c.586-.196 1-.72 1.056-1.335V149.14a1.242 1.242 0 1 0-2.485 0v4.97H24.36a1.242 1.242 0 0 1-1.242-1.202 69.597 69.597 0 0 0-1.243-12.766 19.8 19.8 0 0 0-3.174-6.958 6.16 6.16 0 0 0 1.839-2.12 1.243 1.243 0 1 0-2.224-1.11c-1.126 2.246-6.2 3.868-13.242 4.224-.52.022-1-.283-1.2-.765l-.497-1.204a1.242 1.242 0 0 1 .405-1.473c.42-.31.99-.766 1.63-1.304l1.026 1.711a1.243 1.243 0 0 0 2.131-1.28l-1.273-2.122a26.226 26.226 0 0 0 5.162-6.504c.211-.41.634-.67 1.096-.673h1.892c.449 0 .863.241 1.083.632 1.66 2.744 6.727 6.677 6.727 6.677l1.429 5.007a4.37 4.37 0 0 0 4.175 3.15c.444 0 .873.156 1.213.442.337.285.56.682.63 1.118l.199 1.194a6.423 6.423 0 0 0 5.297 5.295 6.416 6.416 0 0 0 6.817-3.458 1.23 1.23 0 0 1 1.09-.683h.134l5.293.597a6.483 6.483 0 0 0 6.833-4.387 6.32 6.32 0 0 0 .337-2.042 6.404 6.404 0 0 0-2.43-5.043c1.856-.202 3.667-.411 5.4-.62l.934 2.778a6.184 6.184 0 0 0 5.886 4.252h1.844a130.925 130.925 0 0 0-1.694 14.847c-.079 1.585-.027 5.75-.01 6.993.005.167-.027.332-.093.485zm-2.365 12.463h-6.03l.014-.04c2.367.002 4.433.008 6.016.017v.023zm-3.545-2.485a1.548 1.548 0 0 0 1.056-1.333l.881-8.758v-.03l.29-2.88a2.485 2.485 0 0 0-.622-1.88c-3.001-3.427-3.047-9.903-3.047-9.968a1.242 1.242 0 0 0-2.485 0 24.99 24.99 0 0 0 .655 5.197 9.022 9.022 0 0 1-2.312 2.413 6.907 6.907 0 0 0-6.419-5.125 5.552 5.552 0 0 0-3.681 1.394 5.571 5.571 0 0 0-6.807 4.721c-.932-.339-1.84-.74-2.719-1.201.096-.806.15-1.617.162-2.429a1.242 1.242 0 1 0-2.485 0c0 .046-.026 4.721-1.624 7.194a5.124 5.124 0 0 0-.86 2.784v12.37l2.484-.005v-12.365a2.65 2.65 0 0 1 .46-1.433 11.634 11.634 0 0 0 1.417-3.562 24.157 24.157 0 0 0 10.547 2.472c2.06.022 4.114-.206 6.119-.68.18.315.378.618.596.907l-.139.14a1.242 1.242 0 0 0 1.757 1.756l.134-.134a8.656 8.656 0 0 0 1.7.994l-.095.185a1.242 1.242 0 0 0 2.22 1.118l.32-.637c.35.047.702.073 1.055.078.238 0 .487-.032.735-.054l-.656 6.618a6.39 6.39 0 0 0-3.663 4.575l2.555.002a3.924 3.924 0 0 1 2.471-2.444zm-30.018 2.485h-5.978v-.004l5.978-.012zM69.3 127.676c.277.291.392.702.305 1.095-.24 1.14-.53 2.573-.832 4.217h-2.28a3.706 3.706 0 0 1-3.528-2.55l-.774-2.309c2.242-.288 4.295-.57 6.027-.827.4-.062.805.078 1.082.374zm-43.051 1.63zm0 0a19.514 19.514 0 0 0 6.854 1.197c4.882 0 11.329-.46 17.655-1.08l1.97 1.577a3.942 3.942 0 0 1 1.49 3.106 4 4 0 0 1-4.416 3.958l-5.285-.596a3.166 3.166 0 0 0-.412-.02 3.685 3.685 0 0 0-3.311 2.048 3.958 3.958 0 0 1-7.44-1.118l-.2-1.197a4.337 4.337 0 0 0-4.294-3.634 1.874 1.874 0 0 1-1.787-1.352zm19.272 23.56a21.042 21.042 0 0 1-4.97-.603v-.017a3.106 3.106 0 0 1 3.106-3.107c.4 0 .796.078 1.165.23a1.242 1.242 0 0 0 1.43-.354 3.083 3.083 0 0 1 2.375-1.118c2.321 0 3.727 2.056 4.178 3.833a19.923 19.923 0 0 1-7.284 1.137zm14.653 3.626a6.258 6.258 0 0 1-6.1-2.609 12.336 12.336 0 0 0 4.17-2.927 12.499 12.499 0 0 0 2.124 3.576zm-4.578 13.769H33.097v-.02c6.835-.013 15.556-.026 22.507-.023a6.48 6.48 0 0 0-.008.043z"/></g><g><g><g><g><path fill="#f8d37d" d="M220.703 27.99c.763-.751 2.37-1.863 3.399-1.863 2.11 0 2.59 1.442 2.622 2.622V28.79a2.623 2.623 0 0 0 5.244-.013c.031-1.21.513-2.649 2.622-2.649 1.028 0 2.635 1.112 3.39 1.854a2.619 2.619 0 0 0 3.708 0 2.62 2.62 0 0 0 0-3.708c-.346-.346-3.493-3.39-7.098-3.39-2.297 0-4.012.744-5.245 1.843-1.232-1.099-2.947-1.843-5.244-1.843-3.606 0-6.752 3.044-7.098 3.39a2.616 2.616 0 0 0-.003 3.698 2.626 2.626 0 0 0 3.703.018z"/><path fill="none" stroke="#fff" stroke-miterlimit="20" stroke-width="2" d="M220.703 27.99c.763-.751 2.37-1.863 3.399-1.863 2.11 0 2.59 1.442 2.622 2.622V28.79a2.623 2.623 0 0 0 5.244-.013c.031-1.21.513-2.649 2.622-2.649 1.028 0 2.635 1.112 3.39 1.854a2.619 2.619 0 0 0 3.708 0 2.62 2.62 0 0 0 0-3.708c-.346-.346-3.493-3.39-7.098-3.39-2.297 0-4.012.744-5.245 1.843-1.232-1.099-2.947-1.843-5.244-1.843-3.606 0-6.752 3.044-7.098 3.39a2.616 2.616 0 0 0-.003 3.698 2.626 2.626 0 0 0 3.703.018z"/></g><g><path fill="#f8d37d" d="M239.987 64.274a5.212 5.212 0 0 1 5.092-4.059 5.212 5.212 0 0 1 5.092 4.06 2.622 2.622 0 0 0 3.975 1.613c1.708-1.1 4.044.246 4.044 2.194a2.626 2.626 0 0 1-2.622 2.622H234.59a2.626 2.626 0 0 1-2.622-2.622 2.626 2.626 0 0 1 2.622-2.622c.504 0 .981.144 1.422.427a2.623 2.623 0 0 0 3.975-1.613zm-4.05-3.94a7.71 7.71 0 0 0-1.347-.119c-4.337 0-7.866 3.53-7.866 7.867s3.53 7.866 7.866 7.866h20.978c4.337 0 7.866-3.53 7.866-7.866 0-4.337-3.53-7.867-7.866-7.867-.454 0-.905.04-1.348.118a10.413 10.413 0 0 0-9.141-5.362 10.414 10.414 0 0 0-9.141 5.362z"/><path fill="none" stroke="#fff" stroke-miterlimit="20" stroke-width="2" d="M239.987 64.274a5.212 5.212 0 0 1 5.092-4.059 5.212 5.212 0 0 1 5.092 4.06 2.622 2.622 0 0 0 3.975 1.613c1.708-1.1 4.044.246 4.044 2.194a2.626 2.626 0 0 1-2.622 2.622H234.59a2.626 2.626 0 0 1-2.622-2.622 2.626 2.626 0 0 1 2.622-2.622c.504 0 .981.144 1.422.427a2.623 2.623 0 0 0 3.975-1.613zm-4.05-3.94a7.71 7.71 0 0 0-1.347-.119c-4.337 0-7.866 3.53-7.866 7.867s3.53 7.866 7.866 7.866h20.978c4.337 0 7.866-3.53 7.866-7.866 0-4.337-3.53-7.867-7.866-7.867-.454 0-.905.04-1.348.118a10.413 10.413 0 0 0-9.141-5.362 10.414 10.414 0 0 0-9.141 5.362z"/></g><g><path fill="#f8d37d" d="M159.263 38.053a5.212 5.212 0 0 1 5.092-4.06 5.212 5.212 0 0 1 5.093 4.06 2.622 2.622 0 0 0 3.975 1.613c1.707-1.1 4.043.246 4.043 2.194a2.626 2.626 0 0 1-2.622 2.622h-20.977a2.626 2.626 0 0 1-2.622-2.622 2.626 2.626 0 0 1 2.622-2.622c.503 0 .98.144 1.421.427a2.623 2.623 0 0 0 3.975-1.612zm-4.049-3.941a7.71 7.71 0 0 0-1.348-.118c-4.337 0-7.866 3.53-7.866 7.866 0 4.337 3.53 7.867 7.866 7.867h20.978c4.337 0 7.866-3.53 7.866-7.867s-3.53-7.866-7.866-7.866c-.454 0-.905.039-1.348.118a10.413 10.413 0 0 0-9.14-5.363 10.414 10.414 0 0 0-9.142 5.363z"/><path fill="none" stroke="#fff" stroke-miterlimit="20" stroke-width="2" d="M159.263 38.053a5.212 5.212 0 0 1 5.092-4.06 5.212 5.212 0 0 1 5.093 4.06 2.622 2.622 0 0 0 3.975 1.613c1.707-1.1 4.043.246 4.043 2.194a2.626 2.626 0 0 1-2.622 2.622h-20.977a2.626 2.626 0 0 1-2.622-2.622 2.626 2.626 0 0 1 2.622-2.622c.503 0 .98.144 1.421.427a2.623 2.623 0 0 0 3.975-1.612zm-4.049-3.941a7.71 7.71 0 0 0-1.348-.118c-4.337 0-7.866 3.53-7.866 7.866 0 4.337 3.53 7.867 7.866 7.867h20.978c4.337 0 7.866-3.53 7.866-7.867s-3.53-7.866-7.866-7.866c-.454 0-.905.039-1.348.118a10.413 10.413 0 0 0-9.14-5.363 10.414 10.414 0 0 0-9.142 5.363z"/></g></g></g></g><g><g><path fill="#f8d37d" d="M249.57 165.957c-7.23 0-13.11-5.881-13.11-13.11-.001-7.228 5.88-13.11 13.11-13.11 1.943 0 3.782.436 5.443 1.197l-6.507 11.3a1.227 1.227 0 1 0 2.128 1.225l6.506-11.298c3.346 2.377 5.54 6.277 5.54 10.685 0 7.229-5.881 13.11-13.11 13.11zm13.262-31.219h17.551l-8.528 15.604zm30.1 31.219c-6.814 0-12.426-5.228-13.048-11.883h13.05a1.227 1.227 0 0 0 1.08-1.809l-6.178-11.498a13.042 13.042 0 0 1 5.097-1.031c7.228 0 13.11 5.881 13.11 13.11 0 7.229-5.88 13.11-13.11 13.11zm-7.256-24.02l5.203 9.682h-10.995a13.116 13.116 0 0 1 5.792-9.682zm-1.163-2.163c-3.968 2.564-6.694 6.878-7.085 11.845h-3.473l8.533-15.613zm-34.944-2.494c-8.582 0-15.566 6.984-15.566 15.567s6.984 15.566 15.566 15.566c8.583 0 15.567-6.984 15.567-15.567 0-5.317-2.684-10.016-6.764-12.825l2.334-4.055 9.952 17.21v2.653h-1.009a1.228 1.228 0 1 0 0 2.456h5.394a1.228 1.228 0 1 0 0-2.456h-1.93v-1.753h4.315c.63 8.009 7.336 14.338 15.505 14.338 8.582 0 15.566-6.984 15.566-15.567s-6.984-15.567-15.566-15.565c-2.227 0-4.342.478-6.26 1.324l-2.778-5.17 1.085-1.986h5.454a1.228 1.228 0 1 0 0-2.456h-9.274a1.228 1.228 0 1 0 0 2.456h1.02l-.455.833H261.39l-1.645-2.674h4.774a1.228 1.228 0 1 0 0-2.457h-6.972a1.23 1.23 0 0 0-1.045 1.871l2.773 4.507-3.036 5.273a15.443 15.443 0 0 0-6.67-1.523z"/></g></g><g><path fill="#f8d37d" d="M178.753 111.967h5.546v-5.546h-5.546zm-3.12-8.665h11.786v11.785h-11.785zm20.452 8.665h5.541v-5.546h-5.541zm-3.12-8.665h11.785v11.785h-11.785zm-14.212 34.662h5.546v-14.212h-5.546zm-3.12-17.331h11.786v20.45h-11.785zm20.452 17.331h5.541v-14.212h-5.541zm-3.12-17.331h11.785v20.45h-11.785zm-14.212 38.995h5.546v-9.879h-5.546zm-3.12-12.998h11.786v16.122h-11.785zm-17.33-22.878h-5.546v14.212h5.546zm3.12 17.332h-11.786v-20.451h11.785zm-20.452-17.332h-5.546v14.212h5.546zm3.12 17.332h-11.785v-20.451h11.785zm66.205 27.21V97.756h-40.208v70.538h22.877V146.63h11.785v21.664h5.546zm-8.665-18.545h-5.546v18.54h5.541zm-56.327 0h-5.546v18.54h5.546zm3.12 18.545h5.546v-18.545h-5.546zm-21.664 0h9.878V146.63h20.451v21.664h9.88v-53.207h-40.21zm22.877-59.1a2.776 2.776 0 0 0-2.773-2.773 2.776 2.776 0 0 0-2.773 2.773v2.773h5.546v-2.773zm-17.349 2.773h8.683v-2.773a5.899 5.899 0 0 1 5.893-5.892 5.899 5.899 0 0 1 5.893 5.892v2.773h8.687l-11.586-19.302c-.017-.03-.017-.07-.035-.1-.047-.091-.073-.19-.104-.29-.026-.104-.056-.204-.06-.308-.005-.04-.022-.07-.022-.104v-7.106h-5.546v7.106c0 .035-.017.065-.022.104-.004.104-.034.204-.06.308-.03.1-.057.199-.104.29-.018.03-.018.07-.035.1zm60.677-20.104a2.776 2.776 0 0 0-2.773-2.773 2.776 2.776 0 0 0-2.773 2.773v2.773h5.546zm-18.544 2.773h9.878v-2.773a5.899 5.899 0 0 1 5.893-5.893 5.899 5.899 0 0 1 5.893 5.893v2.773h9.874V89.09h-2.768c-.863 0-1.56-.698-1.56-1.56v-7.106h-7.106c-.862 0-1.56-.697-1.56-1.56V71.76h-5.546v7.105c0 .863-.698 1.56-1.56 1.56h-7.106v7.106c0 .862-.697 1.56-1.56 1.56h-2.772zM125.2 171.413c-.862 0-1.56-.697-1.56-1.56v-56.326c0-.862.698-1.56 1.56-1.56h3.449L140.97 91.43v-8.233c0-.862.698-1.56 1.56-1.56h8.666c.862 0 1.56.698 1.56 1.56v8.233l12.322 20.537h1.89V96.196c0-.862.697-1.56 1.559-1.56h2.773V87.53c0-.862.698-1.56 1.56-1.56h2.773v-7.106c0-.862.697-1.56 1.56-1.56h7.105V70.2c0-.862.698-1.56 1.56-1.56h8.666c.862 0 1.56.698 1.56 1.56v7.106h7.105c.863 0 1.56.697 1.56 1.56v7.105h2.773c.863 0 1.56.698 1.56 1.56v7.106h2.773c.862 0 1.56.698 1.56 1.56v7.106c.608-.477-1.09 66.907 0 67.404 9.9 4.394 32.817.707-88.216.707zm19.497-94.715a2.167 2.167 0 1 1 4.335.002 2.167 2.167 0 0 1-4.335-.002z"/></g></g></svg>