<svg xmlns="http://www.w3.org/2000/svg" width="251" height="133" viewBox="0 0 251 133">
      <g transform="translate(0 3)">
        <g>
          <g transform="translate(0 5)">
            <path
              fill="#f8d37d"
              d="M147.737 110.906c.55 0 1.131.035 1.728.105a4.02 4.02 0 0 0 3.694-1.594 26.425 26.425 0 0 1 7.886-7.037l-1.688 22.48h-28.4c2.308-7.078 10.062-13.954 16.78-13.954zm-18.702-36.664V58.578l34.948 4.652-.482 6.424zm55.203-23.225l11.748 6.239 5.075 67.604h-33.646l5.074-67.604zM176.45 11.2h15.663l-4.34 32.598-1.651-.877a4.018 4.018 0 0 0-3.768 0l-1.571.834zm63.608 47.38v15.663l-35.09-4.671-.47-6.26zm-23.43 49.327c0 .702-.053 1.426-.156 2.151a4.017 4.017 0 0 0 5.23 4.383 9.157 9.157 0 0 1 2.858-.457c5.055 0 9.168 4.114 9.168 9.169 0 .575-.055 1.148-.16 1.708h-24.45l-2.338-31.152a15.083 15.083 0 0 1 9.848 14.198zm25.044 16.954c.056-.567.092-1.137.092-1.708 0-9.48-7.707-17.192-17.183-17.204a23.117 23.117 0 0 0-5.958-13.647 23.13 23.13 0 0 0-12.481-7.1l-.56-7.442 37.963 5.053a4.017 4.017 0 0 0 4.548-3.982V53.99a4.018 4.018 0 0 0-4.548-3.982l-39.649 5.278-.063-.84a4.019 4.019 0 0 0-2.122-3.249l-6.366-3.38 5.339-40.105a4.018 4.018 0 0 0-3.983-4.548h-24.84a4.018 4.018 0 0 0-3.982 4.548l5.333 40.062-6.448 3.423a4.019 4.019 0 0 0-2.122 3.248l-.057.76-39.037-5.197A4.02 4.02 0 0 0 121 53.99v24.84a4.019 4.019 0 0 0 4.548 3.982l37.338-4.97-1.148 15.296a33.923 33.923 0 0 0-13.64 9.736 20.406 20.406 0 0 0-.362-.003c-12.39 0-25.496 13.368-25.496 26.007 7.129-3.152 1.799 4.017 119.432-4.018z"
            />
            <path
              fill="none"
              stroke="#f4f0ea"
              stroke-miterlimit="20"
              stroke-width="5"
              d="M147.737 110.906c.55 0 1.131.035 1.728.105a4.02 4.02 0 0 0 3.694-1.594 26.425 26.425 0 0 1 7.886-7.037l-1.688 22.48h-28.4c2.308-7.078 10.062-13.954 16.78-13.954zm-18.702-36.664V58.578l34.948 4.652-.482 6.424zm55.203-23.225l11.748 6.239 5.075 67.604h-33.646l5.074-67.604zM176.45 11.2h15.663l-4.34 32.598-1.651-.877a4.018 4.018 0 0 0-3.768 0l-1.571.834zm63.608 47.38v15.663l-35.09-4.671-.47-6.26zm-23.43 49.327c0 .702-.053 1.426-.156 2.151a4.017 4.017 0 0 0 5.23 4.383 9.157 9.157 0 0 1 2.858-.457c5.055 0 9.168 4.114 9.168 9.169 0 .575-.055 1.148-.16 1.708h-24.45l-2.338-31.152a15.083 15.083 0 0 1 9.848 14.198zm25.044 16.954c.056-.567.092-1.137.092-1.708 0-9.48-7.707-17.192-17.183-17.204a23.117 23.117 0 0 0-5.958-13.647 23.13 23.13 0 0 0-12.481-7.1l-.56-7.442 37.963 5.053a4.017 4.017 0 0 0 4.548-3.982V53.99a4.018 4.018 0 0 0-4.548-3.982l-39.649 5.278-.063-.84a4.019 4.019 0 0 0-2.122-3.249l-6.366-3.38 5.339-40.105a4.018 4.018 0 0 0-3.983-4.548h-24.84a4.018 4.018 0 0 0-3.982 4.548l5.333 40.062-6.448 3.423a4.019 4.019 0 0 0-2.122 3.248l-.057.76-39.037-5.197A4.02 4.02 0 0 0 121 53.99v24.84a4.019 4.019 0 0 0 4.548 3.982l37.338-4.97-1.148 15.296a33.923 33.923 0 0 0-13.64 9.736 20.406 20.406 0 0 0-.362-.003c-12.39 0-25.496 13.368-25.496 26.007 7.129-3.152 1.799 4.017 119.432-4.018z"
            />
          </g>
          <g>
            <path fill="#f8d37d" d="M184.238 121.23a4.017 4.017 0 0 0 4.017-4.018V106.23a4.018 4.018 0 1 0-8.035 0v10.983a4.018 4.018 0 0 0 4.018 4.018z" />
            <path fill="none" stroke="#f4f0ea" stroke-miterlimit="20" stroke-width="5" d="M184.238 121.23a4.017 4.017 0 0 0 4.017-4.018V106.23a4.018 4.018 0 1 0-8.035 0v10.983a4.018 4.018 0 0 0 4.018 4.018z" />
          </g>
        </g>
        <g>
          <g>
            <g><path fill="none" stroke="#f8d37d" stroke-miterlimit="20" stroke-width="2" d="M23.111 94.997c0-9.247 4.811-13.532 6.916-10.374 4.36 6.615 5.188 18.569-6.916 18.569s-10.9-11.879-6.916-18.57c1.578-2.556 6.916 2.331 6.916 8.872" /></g>
            <g><path fill="none" stroke="#f8d37d" stroke-miterlimit="20" stroke-width="2" d="M23.111 103.192v22.328" /></g>
            <g><path fill="none" stroke="#f8d37d" stroke-miterlimit="20" stroke-width="2" d="M23.111 126.271s.752-13.682 15.863-25.26c0 0-7.217 7.97-10.826 18.72-1.955 5.864-3.609 6.54-5.037 6.54z" /></g>
            <g><path fill="none" stroke="#f8d37d" stroke-miterlimit="20" stroke-width="2" d="M23.863 129.88S23.11 116.197 8 104.62c0 0 7.217 7.894 10.826 18.72 1.88 5.863 3.533 6.54 5.037 6.54z" /></g>
          </g>
        </g>
        <g>
          <g>
            <g><path fill="none" stroke="#f8d37d" stroke-miterlimit="20" stroke-width="2" d="M60.211 90.313c0-10.488 5.458-15.348 7.845-11.767 4.946 7.504 5.884 21.062-7.845 21.062-13.728 0-12.364-13.473-7.845-21.062 1.791-2.9 7.845 2.643 7.845 10.062" /></g>
            <g><path fill="none" stroke="#f8d37d" stroke-miterlimit="20" stroke-width="2" d="M60.211 99.608v25.325" /></g>
            <g><path fill="none" stroke="#f8d37d" stroke-miterlimit="20" stroke-width="2" d="M60.211 125.786v0s.853-15.52 17.993-28.651c0 0-8.186 9.039-12.28 21.232-2.216 6.651-4.092 7.419-5.713 7.419z" /></g>
            <g><path fill="none" stroke="#f8d37d" stroke-miterlimit="20" stroke-width="2" d="M61.064 129.879v0s-.853-15.52-17.992-28.651c0 0 8.186 8.953 12.279 21.232 2.132 6.651 4.008 7.419 5.713 7.419z" /></g>
          </g>
        </g>
      </g>
    </svg>