<svg xmlns="http://www.w3.org/2000/svg" width="244" height="63" viewBox="0 0 244 63"><g><g><g><g><path fill="#373a36" d="M38.487 25.05c-.974-.127-2.065-.165-3.11-.183-.214.454-.436.919-.671 1.397 1.24.012 2.509.046 3.598.19 3.31.429 6.295 1.578 6.436 10.822.002.162-.002.318-.004.476-.004.117-.006.235-.006.356.002.716-.002 1.429-.023 2.118-.242 8.084-2.012 14.313-5.412 19.041-1.043 1.447-1.971 2.14-2.769 2.026-1.416-.184-2.926-2.65-4.535-5.278-.896-1.463-1.822-2.976-2.897-4.4a41.538 41.538 0 0 1-3.785-6.034c-.481-.93-.883-1.77-1.23-2.57-1.565-3.61-2.519-7.263-2.695-10.311a53.402 53.402 0 0 1-1.522-.95c-.002 3.91 1.347 8.869 3.743 13.71.36.727.773 1.495 1.301 2.419a42.861 42.861 0 0 0 3.003 4.563c.984 1.296 1.86 2.722 2.708 4.103l.108.174c1.868 3.057 3.482 5.698 5.62 5.978 1.403.175 2.765-.674 4.162-2.619 3.699-5.141 5.556-11.951 5.68-20.82l.012-.573c.01-.465.019-.93.012-1.413-.005-.321-.017-.629-.029-.936l-.005-.111c-.293-7.36-2.45-10.493-7.69-11.175m-5.992-.217c-1.713-.017-3.665-.071-5.666-.333l-.465-.064c-2.461-.318-4.27.444-5.379 2.278-.351.582-.627 1.297-.82 2.128.45.31.89.604 1.334.888.15-.934.406-1.704.763-2.295.672-1.116 1.667-1.665 3.032-1.665.243 0 .498.017.765.052l.59.08c1.904.25 3.73.313 5.142.336.247-.484.482-.954.704-1.405"/></g><g><path fill="#373a36" d="M15.635 62.635c4.285-1.162 5.43-4.657 7.516-11.018.356-1.091.75-2.286 1.188-3.564a51.67 51.67 0 0 1-.947-1.728 233.496 233.496 0 0 0-1.647 4.871c-2.052 6.265-2.989 9.123-6.51 10.084-.16.04-.302.062-.433.067h-.074c-4.098 0-6.644-13.932-8.697-25.17-.771-4.229-1.5-8.225-2.297-11.559C1.302 14.431 1.402 7.567 4.031 4.22c1.196-1.527 2.9-2.314 5.21-2.404 3.277-.127 7.675 1.181 13.097 3.892a74.94 74.94 0 0 1 2.127 1.106 109.602 109.602 0 0 1 6.66 3.934c5.748 3.657 5.546 6.828 2.094 13.925-.305.63-.64 1.296-.995 1.99-.469.922-.967 1.887-1.512 2.932l-.48.932a125.96 125.96 0 0 0-1.586 3.17c.43.21.867.421 1.314.632a126.727 126.727 0 0 1 1.59-3.18l.482-.925a262.917 262.917 0 0 0 1.948-3.803c.34-.683.655-1.336.95-1.971 3.156-6.787 3.514-10.745-2.988-14.881a115.177 115.177 0 0 0-5.51-3.3 85.165 85.165 0 0 0-2.148-1.16C18.02 1.84 12.944.258 9.184.405c-2.741.108-4.87 1.107-6.33 2.968C-.09 7.125-.27 14.179 2.3 24.939c.792 3.327 1.517 7.297 2.283 11.5 2.47 13.534 4.805 26.324 10.138 26.323.045 0 .09-.002.134-.003a3.64 3.64 0 0 0 .78-.124m9.024-19.747c.254.582.54 1.188.865 1.837a120.309 120.309 0 0 1 3.342-8.052c-.447-.21-.884-.421-1.315-.632a118.542 118.542 0 0 0-2.892 6.847"/></g><g><path fill="#373a36" d="M42.599 40.203a7.858 7.858 0 0 0 1.535-.214c.012-.48.016-.972.016-1.467a6.12 6.12 0 0 1-1.607.269c-2.515.11-6.18-.927-10.916-3.05-.542-.242-1.062-.486-1.58-.728l-.073-.035a121.99 121.99 0 0 1-1.842-.884c-2.456-1.211-4.664-2.432-6.562-3.63a47.243 47.243 0 0 1-1.895-1.255c-4.557-3.171-7.292-6.312-8.364-9.602-.432-1.328.404-2.893 1.181-3.973 2.012-2.796 6.178-5.977 11.208-8.57a73.79 73.79 0 0 0-1.487-.767c-4.894 2.634-8.974 5.818-10.931 8.537-1.404 1.949-1.867 3.697-1.374 5.2 1.232 3.788 4.45 7.366 9.835 10.941.612.41 1.29.837 2.071 1.306a77.41 77.41 0 0 0 5.727 3.108 88.64 88.64 0 0 0 1.832.88c.534.251 1.067.5 1.624.75 5.014 2.251 8.813 3.29 11.602 3.184m4.16-3.923l.002.034c.012.312.025.623.03.95.006.468-.003.919-.012 1.368 2.497-2.357 2.646-7.064 2.79-11.638.074-2.269.15-4.614.459-6.882l.119-.863c.739-5.313 1.659-11.925-1.83-15.651C46.606 1.77 43.985.846 40.522.846c-.262 0-.53.005-.801.016-4.292.185-9.475 1.604-14.65 4.004.498.265 1.003.54 1.517.824 3.302-1.449 8.198-3.189 13.048-3.408l.074-.005c3.496-.135 5.952.604 7.51 2.267 3.035 3.242 2.165 9.496 1.467 14.521l-.12.868c-.318 2.345-.395 4.73-.468 7.038-.134 4.178-.31 7.302-1.34 9.309"/></g></g><g><g><path fill="#373a36" d="M85.067 32.866v-.046c0-3.808-3.12-6.928-6.975-6.928a6.971 6.971 0 0 0-6.974 6.974c0 3.808 3.12 6.974 6.974 6.974a6.971 6.971 0 0 0 6.975-6.974m0-9.176V12.265a2.252 2.252 0 0 1 2.248-2.249c1.285 0 2.294 1.01 2.294 2.249v20.601c0 6.332-5.185 11.517-11.517 11.517-6.377 0-11.516-5.185-11.516-11.517a11.495 11.495 0 0 1 11.516-11.517c2.616 0 5.048.872 6.975 2.34"/></g><g><path fill="#373a36" d="M97.608 31.41l13.178-1.47c-1.314-3.086-4.396-4.22-7.131-3.914-3.055.342-5.39 2.587-6.047 5.385m18.266.269c.138 1.23-.754 2.346-2.03 2.489l-15.732 1.756c1.262 2.629 4.035 4.305 7.09 3.964 1.049-.117 2.909-.418 4.94-2.075.972-.801 2.457-.321 3.126.712.675 1.08.214 2.331-.758 3.132-2.786 2.343-5.116 2.557-6.804 2.745-6.338.708-12.02-3.875-12.723-10.168a11.495 11.495 0 0 1 10.168-12.723c5.517-.616 11.893 2.735 12.723 10.168"/></g><g><path fill="#373a36" d="M142.372 32.958v9.222a2.272 2.272 0 0 1-2.294 2.294c-1.239 0-2.248-1.01-2.248-2.294v-9.222a6.971 6.971 0 0 0-6.975-6.975 6.971 6.971 0 0 0-6.973 6.975v9.222a2.272 2.272 0 0 1-2.295 2.294c-1.239 0-2.248-1.01-2.248-2.294v-9.222c0-6.378 5.185-11.517 11.516-11.517 6.332 0 11.517 5.139 11.517 11.517"/></g><g><path fill="#373a36" d="M158.476 23.735a2.301 2.301 0 0 1-2.294 2.294h-3.257v16.196a2.301 2.301 0 0 1-2.295 2.295c-1.239 0-2.248-1.056-2.248-2.295V26.03h-3.303c-1.24 0-2.249-1.055-2.249-2.294a2.252 2.252 0 0 1 2.249-2.248h3.303V12.31a2.252 2.252 0 0 1 2.248-2.248c1.285 0 2.295 1.01 2.295 2.248v9.177h3.257c1.285 0 2.294 1.009 2.294 2.248"/></g><g><path fill="#373a36" d="M203.899 33.14c0-3.853-2.936-7.11-6.79-7.11-3.855 0-7.112 3.257-7.112 7.11 0 3.855 3.257 6.792 7.111 6.792 3.855 0 6.79-2.937 6.79-6.791m4.498 0v8.993c0 1.33-.964 2.294-2.295 2.294-.917 0-2.202-.964-2.202-2.294-1.973 1.652-4.175 2.294-6.79 2.294-6.47 0-11.609-4.818-11.609-11.287 0-6.47 5.139-11.608 11.608-11.608 6.47 0 11.288 5.139 11.288 11.608"/></g><g><path fill="#373a36" d="M243.954 30.893c.046.091.046.137.046.23v11.149a2.301 2.301 0 0 1-2.294 2.294c-1.24 0-2.249-1.01-2.249-2.294V30.709c0-2.57-2.11-4.634-4.68-4.634-2.569 0-4.68 2.065-4.68 4.634v11.563c0 1.284-1.009 2.294-2.248 2.294a2.3 2.3 0 0 1-2.294-2.294V30.709a4.621 4.621 0 0 0-4.634-4.634c-2.57 0-4.68 2.065-4.68 4.634v11.563c0 1.284-1.01 2.294-2.248 2.294a2.272 2.272 0 0 1-2.295-2.294V30.709c0-5.047 4.13-9.176 9.223-9.176a9.079 9.079 0 0 1 6.928 3.166 9.08 9.08 0 0 1 6.929-3.166c5.093 0 9.222 4.13 9.222 9.176 0 .092 0 .138-.046.184"/></g><g><path fill="#373a36" d="M163.517 31.253l13.178-1.471c-1.314-3.085-4.396-4.218-7.131-3.913-3.056.341-5.39 2.587-6.047 5.384m18.266.27c.137 1.23-.754 2.346-2.03 2.488l-15.732 1.757c1.262 2.629 4.035 4.304 7.09 3.963 1.049-.117 2.909-.417 4.94-2.075.972-.8 2.457-.32 3.126.713.675 1.079.214 2.33-.758 3.132-2.786 2.342-5.116 2.556-6.804 2.745-6.338.707-12.02-3.875-12.723-10.168a11.495 11.495 0 0 1 10.168-12.723c5.517-.616 11.893 2.735 12.723 10.167"/></g></g></g></g></svg>