<svg xmlns="http://www.w3.org/2000/svg" width="270" height="73" viewBox="0 0 270 73"><g><g><g><g><path fill="#f2a900" d="M42.121 29.589c-1.08-.14-2.29-.183-3.45-.204-.236.504-.482 1.02-.742 1.55 1.374.013 2.781.05 3.989.211 3.67.475 6.98 1.75 7.136 11.999.003.18-.001.353-.004.528-.004.13-.007.26-.007.394.003.795-.002 1.585-.025 2.35-.268 8.963-2.23 15.87-6 21.113-1.157 1.604-2.187 2.372-3.071 2.246-1.57-.204-3.244-2.938-5.03-5.853-.993-1.622-2.02-3.3-3.211-4.878a46.058 46.058 0 0 1-4.197-6.69 46.068 46.068 0 0 1-1.363-2.85c-1.736-4.003-2.794-8.054-2.99-11.434a59.238 59.238 0 0 1-1.686-1.053c-.004 4.336 1.492 9.834 4.15 15.203.399.805.857 1.657 1.442 2.68a47.548 47.548 0 0 0 3.33 5.06c1.09 1.438 2.063 3.02 3.003 4.55l.12.194c2.07 3.39 3.86 6.317 6.232 6.628 1.554.194 3.065-.748 4.614-2.904 4.101-5.7 6.16-13.252 6.298-23.085l.013-.637c.01-.515.02-1.03.014-1.566-.006-.356-.02-.697-.032-1.038l-.006-.124c-.325-8.16-2.717-11.634-8.527-12.39m-6.644-.241c-1.9-.019-4.064-.08-6.283-.369l-.515-.07c-2.73-.354-4.736.491-5.964 2.524-.39.646-.696 1.438-.91 2.36.5.344.987.67 1.479.985.167-1.036.45-1.89.847-2.545.744-1.238 1.848-1.846 3.36-1.846.27 0 .553.019.85.058l.655.09c2.11.276 4.135.345 5.7.37.275-.535.535-1.056.781-1.557"/></g><g><path fill="#f2a900" d="M16.782 71.264c4.75-1.289 6.022-5.164 8.334-12.218.395-1.21.832-2.534 1.317-3.95a57.116 57.116 0 0 1-1.05-1.917 258.518 258.518 0 0 0-1.826 5.401c-2.276 6.946-3.314 10.116-7.219 11.181a2.32 2.32 0 0 1-.48.074l-.081.001c-4.544 0-7.367-15.449-9.644-27.91-.855-4.689-1.663-9.12-2.547-12.816C.889 17.814 1 10.203 3.915 6.492 5.242 4.798 7.13 3.926 9.692 3.826c3.633-.14 8.511 1.31 14.522 4.316.77.385 1.554.79 2.36 1.226a121.557 121.557 0 0 1 7.383 4.362c6.375 4.055 6.15 7.57 2.323 15.44-.339.699-.709 1.437-1.103 2.207a361.519 361.519 0 0 1-1.677 3.251l-.531 1.033a139.532 139.532 0 0 0-1.76 3.517c.477.232.962.466 1.457.7.601-1.245 1.18-2.401 1.763-3.526l.535-1.026a292.457 292.457 0 0 0 2.16-4.217c.378-.757.725-1.482 1.054-2.186 3.498-7.525 3.895-11.914-3.315-16.5a127.773 127.773 0 0 0-6.109-3.659c-.81-.453-1.601-.879-2.381-1.286-6.947-3.626-12.575-5.38-16.743-5.216-3.04.119-5.402 1.226-7.02 3.29-3.264 4.16-3.464 11.983-.614 23.913.878 3.689 1.682 8.092 2.532 12.752 2.739 15.007 5.327 29.189 11.24 29.188a4.037 4.037 0 0 0 1.013-.14m10.007-21.897c.282.646.599 1.318.959 2.037a133.409 133.409 0 0 1 3.706-8.929c-.495-.232-.98-.466-1.458-.7a131.484 131.484 0 0 0-3.207 7.592"/></g><g><path fill="#f2a900" d="M46.68 46.391a8.712 8.712 0 0 0 1.702-.238c.014-.533.019-1.077.019-1.626a6.784 6.784 0 0 1-1.782.298c-2.789.122-6.852-1.027-12.105-3.383-.6-.267-1.177-.537-1.752-.806l-.08-.039c-.7-.328-1.379-.655-2.043-.98-2.723-1.343-5.171-2.697-7.276-4.025A52.39 52.39 0 0 1 21.26 34.2c-5.052-3.517-8.085-7-9.273-10.647-.48-1.474.447-3.21 1.31-4.406 2.23-3.1 6.85-6.627 12.427-9.503a81.641 81.641 0 0 0-1.65-.85c-5.426 2.92-9.95 6.451-12.12 9.466-1.557 2.16-2.07 4.1-1.524 5.766 1.367 4.2 4.934 8.167 10.906 12.132.678.454 1.43.927 2.297 1.447a85.852 85.852 0 0 0 6.35 3.446c.658.325 1.334.652 2.031.976.592.279 1.183.556 1.8.832 5.56 2.497 9.773 3.648 12.865 3.531m4.614-4.35l.001.038c.014.345.028.69.033 1.052.007.52-.002 1.02-.013 1.518 2.77-2.614 2.935-7.833 3.095-12.904.081-2.517.165-5.118.508-7.631l.132-.958c.819-5.89 1.84-13.223-2.03-17.354-1.897-2.026-4.802-3.052-8.642-3.052-.29 0-.587.006-.889.018-4.76.205-10.506 1.778-16.245 4.44.553.294 1.114.598 1.683.914 3.662-1.607 9.09-3.536 14.468-3.78l.082-.004c3.877-.15 6.6.67 8.327 2.513 3.366 3.595 2.401 10.53 1.627 16.101l-.133.963c-.353 2.6-.438 5.245-.52 7.804-.148 4.633-.343 8.096-1.484 10.322"/></g></g><g><g><path fill="#f2a900" d="M93.77 26.255v-.05c0-4.223-3.46-7.683-7.733-7.683a7.73 7.73 0 0 0-7.734 7.733c0 4.223 3.46 7.733 7.734 7.733a7.73 7.73 0 0 0 7.733-7.733m0-10.175V3.412A2.497 2.497 0 0 1 96.263.919c1.424 0 2.544 1.12 2.544 2.493v22.843c0 7.021-5.75 12.77-12.77 12.77-7.072 0-12.77-5.749-12.77-12.77 0-7.072 5.698-12.77 12.77-12.77 2.9 0 5.597.967 7.733 2.595"/></g><g><path fill="#f2a900" d="M107.676 24.641l14.612-1.631c-1.457-3.42-4.874-4.678-7.907-4.339-3.388.379-5.976 2.869-6.705 5.97m20.254.299c.153 1.365-.836 2.601-2.251 2.76l-17.444 1.947c1.4 2.915 4.475 4.773 7.862 4.395 1.163-.13 3.225-.462 5.476-2.3 1.079-.889 2.725-.356 3.467.79.749 1.196.238 2.584-.84 3.472-3.089 2.598-5.673 2.835-7.544 3.044-7.028.784-13.33-4.297-14.108-11.274a12.746 12.746 0 0 1 11.274-14.108c6.118-.684 13.188 3.032 14.108 11.274"/></g><g><path fill="#f2a900" d="M157.312 26.357v10.226a2.52 2.52 0 0 1-2.544 2.544c-1.374 0-2.493-1.12-2.493-2.544V26.357a7.73 7.73 0 0 0-7.733-7.733 7.73 7.73 0 0 0-7.733 7.733v10.226a2.52 2.52 0 0 1-2.544 2.544c-1.374 0-2.493-1.12-2.493-2.544V26.357c0-7.072 5.75-12.77 12.77-12.77s12.77 5.698 12.77 12.77"/></g><g><path fill="#f2a900" d="M175.169 16.13a2.551 2.551 0 0 1-2.544 2.544h-3.612v17.96a2.551 2.551 0 0 1-2.544 2.543c-1.374 0-2.493-1.17-2.493-2.544V18.674h-3.663c-1.374 0-2.493-1.17-2.493-2.544a2.497 2.497 0 0 1 2.493-2.493h3.663V3.462A2.497 2.497 0 0 1 166.469.97c1.425 0 2.544 1.12 2.544 2.493v10.175h3.612c1.424 0 2.544 1.12 2.544 2.493"/></g><g><path fill="#f2a900" d="M225.535 26.56c0-4.274-3.256-7.886-7.53-7.886-4.273 0-7.886 3.612-7.886 7.886 0 4.273 3.613 7.53 7.886 7.53 4.274 0 7.53-3.257 7.53-7.53m4.986 0v9.972c0 1.475-1.069 2.544-2.544 2.544-1.018 0-2.442-1.069-2.442-2.544-2.188 1.832-4.63 2.544-7.53 2.544-7.173 0-12.872-5.343-12.872-12.516s5.699-12.872 12.872-12.872c7.174 0 12.516 5.699 12.516 12.872"/></g><g><path fill="#f2a900" d="M269.95 24.067c.05.102.05.153.05.255v12.362a2.551 2.551 0 0 1-2.544 2.544c-1.374 0-2.493-1.119-2.493-2.544v-12.82c0-2.85-2.34-5.139-5.19-5.139-2.848 0-5.188 2.29-5.188 5.139v12.82c0 1.425-1.12 2.544-2.494 2.544a2.551 2.551 0 0 1-2.543-2.544v-12.82c0-2.85-2.29-5.139-5.139-5.139s-5.19 2.29-5.19 5.139v12.82c0 1.425-1.118 2.544-2.492 2.544a2.52 2.52 0 0 1-2.544-2.544v-12.82c0-5.597 4.579-10.176 10.226-10.176 3.053 0 5.8 1.323 7.682 3.511a10.068 10.068 0 0 1 7.683-3.51c5.647 0 10.226 4.578 10.226 10.175 0 .102 0 .153-.051.203"/></g><g><path fill="#f2a900" d="M180.758 24.467l14.612-1.631c-1.457-3.421-4.874-4.678-7.907-4.34-3.388.38-5.977 2.87-6.705 5.971m20.254.298c.152 1.365-.836 2.602-2.251 2.76l-17.445 1.948c1.4 2.915 4.475 4.773 7.863 4.395 1.163-.13 3.225-.463 5.476-2.301 1.079-.888 2.725-.356 3.467.79.748 1.196.238 2.585-.84 3.473-3.089 2.597-5.673 2.835-7.544 3.043-7.028.785-13.33-4.296-14.108-11.274a12.746 12.746 0 0 1 11.274-14.108c6.118-.683 13.188 3.033 14.108 11.274"/></g></g><g><g><path fill="#f2a900" d="M74.446 57.885c0 1.017.194 1.978.58 2.885.388.908.917 1.7 1.588 2.377a7.624 7.624 0 0 0 2.368 1.615c.908.4 1.887.6 2.94.6 1.052 0 2.035-.2 2.948-.6a7.482 7.482 0 0 0 2.368-1.615 7.5 7.5 0 0 0 1.57-2.377 7.374 7.374 0 0 0 .57-2.885 7.464 7.464 0 0 0-2.15-5.298 7.498 7.498 0 0 0-2.367-1.605 7.318 7.318 0 0 0-2.94-.59c-1.04 0-2.016.197-2.93.59a7.469 7.469 0 0 0-2.377 1.605 7.555 7.555 0 0 0-1.587 2.377 7.365 7.365 0 0 0-.58 2.921m16.112-8.092V64.2c-.013 1.33-.243 2.537-.69 3.62-.448 1.082-1.056 2.007-1.824 2.776a8.056 8.056 0 0 1-2.694 1.778 8.65 8.65 0 0 1-3.284.626 8.956 8.956 0 0 1-3.175-.59 8.118 8.118 0 0 1-1.407-.7 6.264 6.264 0 0 1-1.188-.96c-.145-.145-.218-.303-.218-.472 0-.17.067-.315.2-.436.181-.157.347-.208.499-.153.15.054.293.136.426.244a6.754 6.754 0 0 0 2.268 1.425 7.22 7.22 0 0 0 2.667.462 7.255 7.255 0 0 0 2.83-.555 6.894 6.894 0 0 0 2.305-1.565c.653-.674 1.167-1.484 1.542-2.43.375-.946.563-2 .563-3.161v-1.85a8.809 8.809 0 0 1-1.343 1.75c-.52.526-1.1.977-1.742 1.352a8.724 8.724 0 0 1-2.068.871 8.56 8.56 0 0 1-2.304.309 8.363 8.363 0 0 1-3.366-.681 8.784 8.784 0 0 1-2.75-1.86 8.787 8.787 0 0 1-1.86-2.749 8.374 8.374 0 0 1-.68-3.366c0-1.209.228-2.34.68-3.392a8.654 8.654 0 0 1 1.86-2.75 8.874 8.874 0 0 1 2.75-1.85 8.37 8.37 0 0 1 3.366-.68 8.56 8.56 0 0 1 2.304.308 8.74 8.74 0 0 1 2.068.87 8.401 8.401 0 0 1 1.742 1.353c.52.526.968 1.11 1.343 1.75v-3.7a.573.573 0 0 1 .58-.58c.17-.002.312.053.427.162a.55.55 0 0 1 .173.417"/></g><g><path fill="#f2a900" d="M95.747 53.766a8.554 8.554 0 0 1 1.379-1.85 9.022 9.022 0 0 1 1.815-1.434c.665-.399 1.378-.71 2.14-.934a8.464 8.464 0 0 1 2.395-.336c.024 0 .04.003.046.01.006.006.02.008.046.008a.255.255 0 0 1 .108-.018c.206 0 .36.056.463.166a.6.6 0 0 1 .154.424.562.562 0 0 1-.172.424.615.615 0 0 1-.445.166h-.2a7.292 7.292 0 0 0-2.975.616 7.926 7.926 0 0 0-4.137 4.16 7.587 7.587 0 0 0-.617 3.053v7.467c0 .17-.058.315-.173.435a.544.544 0 0 1-.407.181.565.565 0 0 1-.427-.181.61.61 0 0 1-.172-.436V49.83a.61.61 0 0 1 .172-.435.545.545 0 0 1 .408-.182c.182 0 .327.06.436.182.109.12.163.266.163.435z"/></g><g><path fill="#f2a900" d="M105.872 57.885c0 1.017.193 1.978.58 2.885.387.908.917 1.7 1.588 2.377a7.623 7.623 0 0 0 2.368 1.615c.908.4 1.887.6 2.94.6 1.052 0 2.035-.2 2.948-.6a7.42 7.42 0 0 0 3.955-3.992 7.375 7.375 0 0 0 .572-2.885c0-1.04-.194-2.014-.58-2.92a7.554 7.554 0 0 0-1.588-2.378 7.497 7.497 0 0 0-2.368-1.605 7.318 7.318 0 0 0-2.94-.59c-1.04 0-2.017.197-2.93.59a7.469 7.469 0 0 0-2.377 1.605 7.555 7.555 0 0 0-1.588 2.377 7.365 7.365 0 0 0-.58 2.921m-1.18 0c0-1.209.227-2.34.68-3.392a8.653 8.653 0 0 1 1.86-2.75 8.874 8.874 0 0 1 2.75-1.85 8.37 8.37 0 0 1 3.365-.68c1.198 0 2.323.226 3.376.68a8.73 8.73 0 0 1 2.748 1.85 8.61 8.61 0 0 1 1.842 2.75 8.582 8.582 0 0 1 .671 3.392 8.47 8.47 0 0 1-.671 3.366 8.644 8.644 0 0 1-4.59 4.608 8.428 8.428 0 0 1-3.376.682 8.363 8.363 0 0 1-3.365-.681 8.783 8.783 0 0 1-2.75-1.86 8.786 8.786 0 0 1-1.86-2.749 8.373 8.373 0 0 1-.68-3.366"/></g><g><path fill="#f2a900" d="M138.024 62.004a8.156 8.156 0 0 1-1.189 1.742c-.466.52-.98.97-1.542 1.352a7.06 7.06 0 0 1-1.806.88 6.497 6.497 0 0 1-1.996.308c-1.04 0-1.971-.184-2.794-.554a5.628 5.628 0 0 1-2.095-1.614c-.575-.708-1.017-1.575-1.325-2.604-.309-1.028-.463-2.202-.463-3.52V49.81c0-.17.052-.311.154-.426.103-.115.251-.173.445-.173.157 0 .29.058.399.173.109.115.164.257.164.426v8.183c0 2.359.495 4.134 1.487 5.326.992 1.191 2.37 1.787 4.137 1.787.883 0 1.715-.182 2.495-.545a6.383 6.383 0 0 0 2.041-1.497 7.192 7.192 0 0 0 1.38-2.24 7.5 7.5 0 0 0 .508-2.776v-8.22c0-.17.054-.315.162-.435a.536.536 0 0 1 .418-.182c.157 0 .293.06.408.182.115.12.172.266.172.435v15.876c0 .17-.054.312-.163.427a.549.549 0 0 1-.417.172.55.55 0 0 1-.418-.172.597.597 0 0 1-.162-.427z"/></g><g><path fill="#f2a900" d="M144.32 53.495a8.624 8.624 0 0 1 1.351-1.751 8.628 8.628 0 0 1 6.124-2.532c1.198 0 2.323.227 3.375.68a8.732 8.732 0 0 1 2.749 1.852 8.606 8.606 0 0 1 2.513 6.141c0 1.198-.224 2.32-.671 3.366a8.645 8.645 0 0 1-4.59 4.608 8.428 8.428 0 0 1-3.376.682 8.56 8.56 0 0 1-2.304-.309 8.711 8.711 0 0 1-2.069-.87 8.451 8.451 0 0 1-1.75-1.362 8.835 8.835 0 0 1-1.352-1.76v9.617c0 .169-.058.308-.173.417a.598.598 0 0 1-.426.163.574.574 0 0 1-.58-.58V49.793a.574.574 0 0 1 .58-.58c.169 0 .31.054.426.163.115.109.173.248.173.417zm0 4.39a7.27 7.27 0 0 0 .58 2.885c.387.908.916 1.7 1.588 2.377a7.622 7.622 0 0 0 2.368 1.615c.907.4 1.887.6 2.94.6a7.28 7.28 0 0 0 2.948-.6 7.42 7.42 0 0 0 3.956-3.992c.38-.907.57-1.868.57-2.885 0-1.04-.193-2.014-.58-2.92a7.549 7.549 0 0 0-1.588-2.378 7.493 7.493 0 0 0-2.367-1.605 7.317 7.317 0 0 0-2.94-.59c-1.04 0-2.017.197-2.93.59a7.471 7.471 0 0 0-2.377 1.605 7.548 7.548 0 0 0-1.588 2.377 7.359 7.359 0 0 0-.58 2.921"/></g></g></g></g></svg>