<svg xmlns="http://www.w3.org/2000/svg" width="121.357" height="40.543" viewBox="0 0 121.357 40.543"><path d="M-58.484-1.109q-.078-.172-.156-.328t-.156-.281q-.187-.375-.328-.672a5.6,5.6,0,0,1-.266-.687q.047-.266.164-.891t.273-1.367q.156-.742.336-1.508t.367-1.312q.172-.484.383-1.031A7.849,7.849,0,0,1-57.4-10.2a4.3,4.3,0,0,1,.555-.789,1.147,1.147,0,0,1,.641-.391.8.8,0,0,0,.2.2.922.922,0,0,0,.2.1,5.368,5.368,0,0,0,.516.633,4.564,4.564,0,0,0,.594.508A10.056,10.056,0,0,1-54.961-8.9q-.18.57-.375,1.148t-.383,1.117q-.187.539-.3.93-.094.313-.187.719-.078.344-.164.828t-.164,1.063a1.753,1.753,0,0,0,.492-.25,5.672,5.672,0,0,0,.508-.391q.281-.234.547-.5.359-.359.609-.656a6.552,6.552,0,0,0,.461-.617q.211-.32.438-.7l.539-.914q.281-.453.586-.969t.617-.984q.312-.469.609-.867a4.014,4.014,0,0,1,.547-.617q.172.172.4.359a1.376,1.376,0,0,0,.492.266q.109.172.211.3l.2.258.227.313a1.814,1.814,0,0,1,.18.313q-.016.125-.055.328l-.086.445q-.047.242-.1.492t-.1.484q-.156.7-.234,1.063t-.109.563q-.031.2-.039.344t-.008.391a2.277,2.277,0,0,0,.031.375q.031.172.07.352a.923.923,0,0,0,.148.336l.75-.578a2.708,2.708,0,0,0,.6-.664,8.5,8.5,0,0,0,.563-.984q.273-.555.539-1.2t.531-1.336q.188-.5.383-.992t.4-.937q.2-.445.4-.812a4.766,4.766,0,0,1,.383-.617,5.849,5.849,0,0,1,.727.531,3.318,3.318,0,0,1,.531.586,2.679,2.679,0,0,1,.359.734,5.048,5.048,0,0,1,.2.977q-.344.656-.641,1.344t-.594,1.391q-.375.906-.773,1.8a16.021,16.021,0,0,1-.883,1.711,9.87,9.87,0,0,1-1.086,1.492A5.865,5.865,0,0,1-48.359.016a1.832,1.832,0,0,0-.375-.047.781.781,0,0,0-.289.047.779.779,0,0,0-.211.125,2.459,2.459,0,0,1-1.031-.883,14.172,14.172,0,0,1-.766-1.3q-.047-.109-.1-.211t-.117-.211l-.266-.484-.156-.3-.219.2-.328.3-.187.188q-.484.453-.984.883A9.423,9.423,0,0,1-54.437-.9a5.612,5.612,0,0,1-1.164.57,4.207,4.207,0,0,1-1.32.234q-.125-.063-.227-.109t-.2-.094a4.888,4.888,0,0,1-.594-.328A3.433,3.433,0,0,1-58.484-1.109Zm18,.016a1.212,1.212,0,0,1-.055.734.9.9,0,0,1-.375.4,1.27,1.27,0,0,1-.555.148,2.766,2.766,0,0,1-.594-.031,2.429,2.429,0,0,1-.281-.547q-.125-.328-.234-.68t-.2-.7q-.086-.344-.148-.609a1.487,1.487,0,0,0,.1-.43q.023-.242.031-.492t.016-.508a4.834,4.834,0,0,1,.039-.492,7.323,7.323,0,0,1,.32-1.25,8.6,8.6,0,0,0,.336-1.234.42.42,0,0,0-.023-.266.34.34,0,0,1-.023-.234.122.122,0,0,1,.094-.086.125.125,0,0,0,.094-.1.613.613,0,0,0,.023-.281.414.414,0,0,1,.055-.266,4.122,4.122,0,0,0,.2-.367.9.9,0,0,0,.086-.508,1.742,1.742,0,0,0,.266-.219,2.59,2.59,0,0,1,.258-.227,1.666,1.666,0,0,1,.3-.18.921.921,0,0,1,.4-.078.808.808,0,0,1,.164.344l.078.375A1.549,1.549,0,0,0-40-8.523a.556.556,0,0,0,.266.258v.313q0,.188.016.367a1.263,1.263,0,0,0,.07.328.307.307,0,0,0,.18.2q-.281.75-.523,1.484a13.769,13.769,0,0,0-.4,1.477,9.676,9.676,0,0,0-.2,1.492A6.494,6.494,0,0,0-40.484-1.094Zm9.375-6.156a6.076,6.076,0,0,1-.094.719,6.147,6.147,0,0,1-.172.656q-.266,1.266-.617,2.406a13.416,13.416,0,0,1-.8,2.047,10.417,10.417,0,0,1-.789.8,2.218,2.218,0,0,1-.852.484q-.234.031-.414.07T-35.2.016l-.164.031a.85.85,0,0,0-.164.047q-.234-.047-.445-.07A3.494,3.494,0,0,0-36.359,0l-.2-.062q-.156-.047-.242-.078L-36.961-.2a1.14,1.14,0,0,0-.156-.039q-.086-.016-.273-.031a1.183,1.183,0,0,1-.437.094,1.071,1.071,0,0,1-.609-.234,1.837,1.837,0,0,1-.547-1A4.064,4.064,0,0,1-38.9-1.93a1.714,1.714,0,0,1,.117-.352,1.321,1.321,0,0,1,.625-.219,1.746,1.746,0,0,1,.57.094q.273.094.539.2a.945.945,0,0,1,.172.078.765.765,0,0,0,.078.047.155.155,0,0,0,.07.016h.164a.959.959,0,0,0,.133-.008,1.164,1.164,0,0,0,.117-.023l.156.016a.483.483,0,0,0,.219.047,1.285,1.285,0,0,0,.391-.078,1.07,1.07,0,0,1,.18-.062l.148-.031.125-.125a.608.608,0,0,0,.211-.109.805.805,0,0,0,.125-.141,1.359,1.359,0,0,0,.1-.172,1.54,1.54,0,0,1,.125-.2q.063-.078.117-.156t.117-.156v-.156a8.87,8.87,0,0,0,.359-.945q.156-.492.281-.992t.211-.969q.086-.469.148-.844h-.156q-.391,0-.641.008t-.453.031q-.2.023-.43.07t-.57.109l-.234.047a4.727,4.727,0,0,1-.469.219,1.254,1.254,0,0,1-.469.094.89.89,0,0,1-.687-.312.755.755,0,0,1-.344-.531.235.235,0,0,1-.047-.219,1.076,1.076,0,0,1-.062-.336v-.492h.2q.078-.078.109-.117a.263.263,0,0,0,.047-.1l.172-.141q.266-.031.555-.086t.6-.117q.3-.063.508-.094t.406-.047q.2-.016.406-.023t.492-.008H-34a.159.159,0,0,1,.1-.07.646.646,0,0,1,.086-.008.406.406,0,0,1,.125.016.606.606,0,0,1,.078.031,7.2,7.2,0,0,1,.813-.1q.375-.023.672-.023h.289a2.077,2.077,0,0,1,.258.016h.859a1.416,1.416,0,0,1,.25-.016q.25,0,.32.008t.258.039l.4.055a2.836,2.836,0,0,0,.367.023h.234l.047.156.125.156a.373.373,0,0,0,.1.141q.07.063.148.141a3.061,3.061,0,0,1,.3.359.858.858,0,0,1,.1.609l-.109.172a.619.619,0,0,0-.187.141l-.141.125q-.172.016-.3.023t-.25.008q-.234,0-.477-.016l-.508-.031h-.906A1.292,1.292,0,0,0-31.109-7.25Zm7.156.219a1.376,1.376,0,0,1,.352-.562,2.624,2.624,0,0,1,.531-.4,3.678,3.678,0,0,1,.6-.273q.313-.109.594-.187.625-.266,1.336-.508t1.453-.43a8.682,8.682,0,0,1,1.523-.242,4.685,4.685,0,0,1,1.641.2,1.106,1.106,0,0,0,.141.3q.094.141.2.281t.18.273a.685.685,0,0,1,.094.273,1.236,1.236,0,0,1,.25.3.583.583,0,0,1,.031.43q-.156.125-.3.227a2.117,2.117,0,0,1-.32.18,3.7,3.7,0,0,0-1.172-.094q-.594.047-1.062.078a.458.458,0,0,0-.336-.141,1.428,1.428,0,0,0-.406.063l-.422.125a.882.882,0,0,1-.4.031.825.825,0,0,1-.383.164q-.227.039-.492.07-.016.078.031.1t.016.1a.516.516,0,0,0,.242.156q.148.047.313.094a1.339,1.339,0,0,1,.289.117.368.368,0,0,1,.172.227.74.74,0,0,1,.406.109.981.981,0,0,1,.281.266,1.183,1.183,0,0,1,.164.336,1.115,1.115,0,0,1,.055.32q.047.125.109.109t.141.063a.964.964,0,0,0,.234.414,1.742,1.742,0,0,1,.3.461q.031.391.047.7a1.449,1.449,0,0,1-.109.617,3.421,3.421,0,0,1-.648,1.031,5.165,5.165,0,0,1-.937.8,6.573,6.573,0,0,1-1.117.6A12.086,12.086,0,0,1-21.5.172a.254.254,0,0,0-.125,0q-.062.016-.031-.078a.6.6,0,0,1-.273.141,1.272,1.272,0,0,1-.32.023Q-22.422.25-22.6.234a1.185,1.185,0,0,0-.336.016q-.109-.109-.2-.211a.709.709,0,0,1-.133-.258q-.078,0-.07-.078t-.055-.078q.094-.156.086-.18a.073.073,0,0,0-.047-.039.306.306,0,0,1-.07-.039.057.057,0,0,1-.016-.07.524.524,0,0,0,.047-.289q-.016-.164-.031-.336a.979.979,0,0,1,.023-.328.391.391,0,0,1,.227-.25,3.082,3.082,0,0,0,1.008-.039,4.53,4.53,0,0,0,.9-.289,8.934,8.934,0,0,0,.8-.406q.383-.219.758-.391a.642.642,0,0,1,.133-.234,1.854,1.854,0,0,1,.18-.172,1.34,1.34,0,0,0,.172-.172.544.544,0,0,0,.109-.234q.016-.109-.055-.133a.108.108,0,0,1-.07-.117l-.172-.047a3.3,3.3,0,0,0-.672-.289,3.8,3.8,0,0,1-.641-.258.4.4,0,0,1-.32.047,3.759,3.759,0,0,0-.383-.094q-.531-.031-1.023-.109a3.73,3.73,0,0,1-.945-.281.611.611,0,0,0-.078-.141q-.047-.062-.172-.031-.094-.125-.187-.242A1.849,1.849,0,0,1-24-5.8q.031-.187.047-.32a.327.327,0,0,0-.094-.258q.062-.2.094-.328A.857.857,0,0,0-23.953-7.031Zm16.063-.484a7.07,7.07,0,0,0-.844.055q-.453.055-.891.117-.312.047-.6.078t-.523.047q-.109.344-.219.609t-.234.516q-.125.266-.227.539t-.2.586a4.853,4.853,0,0,0-.258.461,2.324,2.324,0,0,0-.164.477,1.738,1.738,0,0,0-.281.492,4.6,4.6,0,0,0-.141.445l-.062.188a.414.414,0,0,0-.109.148.2.2,0,0,1-.078.1.882.882,0,0,1-.109.344.966.966,0,0,0-.047.148.535.535,0,0,0-.016.1q0,.156-.078.2a.434.434,0,0,1,0,.164q-.016.086-.031.164a.816.816,0,0,0-.031.3q.047.062.086.109A.277.277,0,0,1-12.891-1a.685.685,0,0,0,.141.078,1.285,1.285,0,0,0,.188.109l.141.156a.855.855,0,0,1-.141.719.958.958,0,0,1-.8.3h-.187a.379.379,0,0,1-.094-.125l-.2-.078a.315.315,0,0,1-.141-.125q-.2-.094-.328-.156L-14.453-.2V-.391A1,1,0,0,1-14.617-.7a2.763,2.763,0,0,1-.086-.344q-.031-.141-.07-.266a.848.848,0,0,0-.1-.219A4.5,4.5,0,0,1-14.7-3.062q.2-.625.422-1.2.125-.313.25-.633a6.607,6.607,0,0,0,.219-.664l.141-.156q.109-.25.18-.414t.148-.336q.047-.109.086-.211t.07-.18q-.094,0-.172.008t-.156.023q-.094.016-.172.023t-.156.008A.548.548,0,0,1-14-6.812a.9.9,0,0,1-.375.078h-.156a.439.439,0,0,1-.086-.008.362.362,0,0,0-.07-.008.563.563,0,0,0-.25.047h-.516a.491.491,0,0,0-.078.008.491.491,0,0,1-.078.008,1.275,1.275,0,0,1-.234-.023.891.891,0,0,1-.266-.1q-.187-.25-.25-.266l-.141-.187a1.011,1.011,0,0,0-.047-.18q-.031-.086-.062-.2-.062-.156-.117-.336a1.486,1.486,0,0,1-.055-.43.4.4,0,0,1,.063-.187q.047-.063.078-.109l.047-.234.2.016h.438q.5,0,1.016-.039t1.063-.086l.633-.062.664-.062q.063-.141.125-.266l.156-.078a.634.634,0,0,1,.4.07,1.694,1.694,0,0,1,.2.164q.344-.031.7-.07t.711-.1q.531-.078,1.07-.141a9.027,9.027,0,0,1,1.039-.062q.219,0,.422.016a3.682,3.682,0,0,1,.375.047l.156.109a.588.588,0,0,0,.133.172q.086.078.18.156a3.6,3.6,0,0,1,.375.406.923.923,0,0,1,.141.688.715.715,0,0,1-.187.219l-.141.188-.156-.016a.6.6,0,0,0-.172.023q-.078.023-.156.055a1.3,1.3,0,0,1-.125.055.909.909,0,0,1-.141.039q-.141,0-.227-.008T-7.891-7.516Zm6.25,6.2a2.5,2.5,0,0,1-.273.539,2.351,2.351,0,0,1-.422.484,2.344,2.344,0,0,1-.539.352A1.627,1.627,0,0,1-3.5.219a.767.767,0,0,1-.273-.1,1.491,1.491,0,0,0-.148-.1l-.086-.055q-.039-.023-.07-.039l-.187-.078.063-.2a.24.24,0,0,0-.016-.2,1.19,1.19,0,0,0-.187-.2L-4.5-.844a.621.621,0,0,1-.078-.094l-.266-.3.422-.109A.993.993,0,0,0-3.9-1.625.854.854,0,0,0-3.8-2.2a1.291,1.291,0,0,0-.523-.016q-.211.047-.43.109-.281.078-.57.133a3.41,3.41,0,0,1-.633.055q-.125,0-.234-.008t-.234-.023l-.156-.031a.417.417,0,0,0-.062-.2A.587.587,0,0,1-6.7-2.234a1.3,1.3,0,0,1-.164-.211.423.423,0,0,1-.039-.336A.748.748,0,0,1-7-3.062a1.751,1.751,0,0,0-.141.391l-.062.156-.156.031a.105.105,0,0,0-.047.07.335.335,0,0,0-.016.086l-.078.266a.587.587,0,0,1-.062.055.587.587,0,0,0-.062.055,2.832,2.832,0,0,1-.078.281q-.047.141-.094.266-.078.2-.133.4a1.079,1.079,0,0,0-.039.383l-.062.172A.653.653,0,0,1-8.2-.3q-.094.055-.187.1a.271.271,0,0,1-.086.055l-.086.039-.047.172L-8.8.094q-.172.031-.242.047A.763.763,0,0,1-9.2.156L-9.359.141Q-9.531,0-9.625-.086A1.5,1.5,0,0,0-9.844-.25.781.781,0,0,1-10-.531q-.016-.094-.031-.172a.847.847,0,0,1-.039-.156.156.156,0,0,0-.039-.094l-.2-.187.172-.141.016-.266q.312-.8.664-1.531t.727-1.5q.125-.25.242-.5t.242-.5a.346.346,0,0,1-.016-.109.384.384,0,0,1,.031-.141q.172-.266.281-.477t.219-.43q.125-.266.258-.516a3.758,3.758,0,0,1,.336-.516l.25-.109.109-.039a.4.4,0,0,1,.141-.023l.234.031a2.339,2.339,0,0,0,.766-.57,7.928,7.928,0,0,0,.672-.883l.156-.219.2.125a.908.908,0,0,0,.219.086q.141.039.3.086.281.063.531.141a.973.973,0,0,1,.406.234,1.85,1.85,0,0,1,.109.375A2.108,2.108,0,0,0-3-8.281q.047.266.086.531t.055.594q.078.266.133.523t.1.523q.078.375.156.727a4.292,4.292,0,0,0,.2.664.457.457,0,0,1,.156.016.85.85,0,0,1,.164-.047q.086-.016.2-.031l.172-.016.063.156q.016.078.156.156a.574.574,0,0,1,.3.086,1.6,1.6,0,0,1,.172.148.49.49,0,0,0,.125.094l.234.094-.125.234a2.094,2.094,0,0,1-.445.539,2.752,2.752,0,0,1-.648.43q.016.094.023.18a.8.8,0,0,0,.039.18q.047.266.078.547a2.681,2.681,0,0,1,0,.578Zm-4.516-2.7q.469-.031.852-.07t.852-.133q-.109-.469-.234-.977T-4.953-6.2l-.094.156a6.666,6.666,0,0,0-.6.734,8.81,8.81,0,0,0-.492.766l-.187.281q-.094.141-.172.281A1.094,1.094,0,0,1-6.32-4,.835.835,0,0,0-6.156-4.016Zm13.813,2.7a2.5,2.5,0,0,1-.273.539,2.351,2.351,0,0,1-.422.484,2.344,2.344,0,0,1-.539.352A1.627,1.627,0,0,1,5.8.219a.767.767,0,0,1-.273-.1,1.491,1.491,0,0,0-.148-.1L5.289-.039q-.039-.023-.07-.039L5.031-.156l.063-.2a.24.24,0,0,0-.016-.2,1.19,1.19,0,0,0-.187-.2L4.8-.844a.621.621,0,0,1-.078-.094l-.266-.3.422-.109A.993.993,0,0,0,5.4-1.625.854.854,0,0,0,5.5-2.2a1.291,1.291,0,0,0-.523-.016q-.211.047-.43.109-.281.078-.57.133a3.41,3.41,0,0,1-.633.055q-.125,0-.234-.008t-.234-.023l-.156-.031a.417.417,0,0,0-.062-.2.587.587,0,0,1-.062-.055,1.3,1.3,0,0,1-.164-.211.423.423,0,0,1-.039-.336A.748.748,0,0,1,2.3-3.062a1.751,1.751,0,0,0-.141.391l-.062.156-.156.031a.105.105,0,0,0-.047.07.335.335,0,0,0-.016.086L1.8-2.062a.587.587,0,0,1-.062.055.587.587,0,0,0-.062.055,2.832,2.832,0,0,1-.078.281q-.047.141-.094.266-.078.2-.133.4a1.079,1.079,0,0,0-.039.383l-.062.172A.653.653,0,0,1,1.094-.3Q1-.25.906-.2A.271.271,0,0,1,.82-.148L.734-.109.688.063.5.094Q.328.125.258.141A.763.763,0,0,1,.094.156L-.062.141Q-.234,0-.328-.086A1.5,1.5,0,0,0-.547-.25.781.781,0,0,1-.7-.531Q-.719-.625-.734-.7A.847.847,0,0,1-.773-.859.156.156,0,0,0-.812-.953l-.2-.187.172-.141.016-.266q.313-.8.664-1.531t.727-1.5q.125-.25.242-.5t.242-.5a.346.346,0,0,1-.016-.109.384.384,0,0,1,.031-.141q.172-.266.281-.477t.219-.43Q1.688-7,1.82-7.25a3.758,3.758,0,0,1,.336-.516l.25-.109.109-.039a.4.4,0,0,1,.141-.023l.234.031a2.339,2.339,0,0,0,.766-.57,7.928,7.928,0,0,0,.672-.883l.156-.219.2.125a.908.908,0,0,0,.219.086q.141.039.3.086.281.063.531.141a.973.973,0,0,1,.406.234,1.85,1.85,0,0,1,.109.375,2.108,2.108,0,0,0,.047.25q.047.266.086.531t.055.594q.078.266.133.523t.1.523q.078.375.156.727a4.292,4.292,0,0,0,.2.664.457.457,0,0,1,.156.016.85.85,0,0,1,.164-.047q.086-.016.2-.031L7.719-4.8l.063.156q.016.078.156.156a.574.574,0,0,1,.3.086,1.6,1.6,0,0,1,.172.148.49.49,0,0,0,.125.094l.234.094-.125.234a2.094,2.094,0,0,1-.445.539,2.752,2.752,0,0,1-.648.43q.016.094.023.18a.8.8,0,0,0,.039.18q.047.266.078.547a2.681,2.681,0,0,1,0,.578Zm-4.516-2.7q.469-.031.852-.07t.852-.133q-.109-.469-.234-.977T4.344-6.2l-.094.156a6.666,6.666,0,0,0-.6.734,8.81,8.81,0,0,0-.492.766l-.187.281q-.094.141-.172.281A1.094,1.094,0,0,1,2.977-4,.835.835,0,0,0,3.141-4.016Zm8.75,1.172a.282.282,0,0,0-.2.164q-.063.133-.117.273t-.109.258a.175.175,0,0,1-.164.117.451.451,0,0,1-.086.219q-.07.094-.133.2a.816.816,0,0,0-.094.219.435.435,0,0,0,.031.273.409.409,0,0,0-.156.266q-.031.172-.07.328a.639.639,0,0,1-.133.266.4.4,0,0,1-.344.094q-.047.063-.016.078t.047.109a.363.363,0,0,0-.258.023.5.5,0,0,1-.211.07,1.031,1.031,0,0,1-.492-.328,2.841,2.841,0,0,1-.344-.523q-.148-.289-.266-.586t-.227-.516a.738.738,0,0,0,.016-.336.685.685,0,0,0-.109-.273q.766-1.625,1.672-3.469t1.719-3.641q.359.141.711.32a3.652,3.652,0,0,1,.641.414,2.417,2.417,0,0,1,.492.539,1.72,1.72,0,0,1,.266.68q-.031.094-.07.07t-.07.023a.383.383,0,0,1,.07.109.127.127,0,0,1,0,.063.371.371,0,0,0-.008.086.362.362,0,0,0,.047.148q-.063-.016-.086.016t-.1,0a.528.528,0,0,1,.039.281.721.721,0,0,1-.07.2,1.012,1.012,0,0,0-.078.188.45.45,0,0,0,.016.258.1.1,0,0,0-.07.023.31.31,0,0,0-.039.047.31.31,0,0,1-.039.047.065.065,0,0,1-.07.008,3.8,3.8,0,0,1,.031.688q-.016.344-.023.7t.008.734a4.285,4.285,0,0,0,.109.789,2.639,2.639,0,0,0,.9-.844,4.933,4.933,0,0,0,.547-1.156,8.3,8.3,0,0,0,.32-1.375q.109-.734.234-1.5a.972.972,0,0,0,.219-.344q.078-.2.141-.43l.125-.453a2.279,2.279,0,0,1,.156-.414.872.872,0,0,1,.4.148,2.885,2.885,0,0,1,.3.25,3.424,3.424,0,0,0,.3.25.819.819,0,0,0,.391.148q.188.266.344.516a1.441,1.441,0,0,1,.2.531.971.971,0,0,0-.117.281q-.039.156-.086.313a1.31,1.31,0,0,1-.125.289.7.7,0,0,1-.219.227q-.047.406-.117.742T17.32-5.3q-.07.328-.117.68a4.588,4.588,0,0,0-.031.773l-.266.766q-.141.406-.219.734a1.46,1.46,0,0,0-.391.484q-.141.281-.3.563-.063.062-.078.031t-.109-.047a.141.141,0,0,1,0,.094.209.209,0,0,1-.039.055.126.126,0,0,0-.031.07.247.247,0,0,0,.023.125,1.238,1.238,0,0,0-.391.266,2.986,2.986,0,0,1-.367.313,1.111,1.111,0,0,1-.469.188,1.468,1.468,0,0,1-.711-.109A6.014,6.014,0,0,1,12.7-1.391,5.123,5.123,0,0,1,11.891-2.844Zm16.953.094a1.239,1.239,0,0,1-.1.414,2.224,2.224,0,0,1-.211.375,3.44,3.44,0,0,1-.273.344,3.778,3.778,0,0,1-.289.289.552.552,0,0,1,.008.3.739.739,0,0,0-.023.3,1.38,1.38,0,0,1-.711.836.861.861,0,0,1-.9-.086,1.072,1.072,0,0,1-.289-.32.5.5,0,0,0-.32-.242,1.033,1.033,0,0,0-.047-.531q-.094-.266-.2-.281a6.986,6.986,0,0,0-.141-.7q-.094-.375-.172-.758t-.133-.75A3.458,3.458,0,0,1,25-4.234a.465.465,0,0,0-.055-.281.948.948,0,0,1-.1-.3A3.287,3.287,0,0,1,24.8-5.57q.023-.4.023-.758,0-.344-.039-.742t-.07-.766q-.031-.367-.031-.672a1.178,1.178,0,0,1,.078-.477.816.816,0,0,1,.258-.3,2.415,2.415,0,0,0,.3-.258.763.763,0,0,1,.547.281.56.56,0,0,1,.156.469,1.572,1.572,0,0,1,.523.523,3,3,0,0,1,.313.719,4.746,4.746,0,0,1,.164.844q.047.445.078.875t.063.82a2.863,2.863,0,0,0,.125.672q.578-.828.969-1.477t.8-1.242q.406-.594.906-1.2a16.322,16.322,0,0,1,1.3-1.375.813.813,0,0,1,.258.063q.1.047.18.078a1.17,1.17,0,0,0,.188.055.83.83,0,0,0,.3-.008q.063.156.094.227t.055.141q.023.07.063.18t.133.313a.13.13,0,0,1,.031.125q-.016.078-.023.148t-.008.1q0,.031.078,0a1.172,1.172,0,0,1-.164.4.687.687,0,0,0-.1.43q-.359.469-.789.969T30.7-5.391q-.43.531-.82,1.117A8.018,8.018,0,0,0,29.2-3.047.144.144,0,0,0,29.086-3a.7.7,0,0,0-.07.1.7.7,0,0,1-.07.1A.126.126,0,0,1,28.844-2.75ZM40.031-4.687a1.03,1.03,0,0,0,.031.359,2.565,2.565,0,0,0,.117.336q.07.164.133.336a2.109,2.109,0,0,1,.094.344,1.822,1.822,0,0,1,0,.477,2.672,2.672,0,0,1-.109.5,1.875,1.875,0,0,1-.2.438.826.826,0,0,1-.3.289,1.537,1.537,0,0,1-.531.438,3.056,3.056,0,0,0-.578.375,1.186,1.186,0,0,1-.383.156l-.43.094q-.172.094-.406.2t-.484.188a2.926,2.926,0,0,1-.5.125,1.868,1.868,0,0,1-.437.023,4.112,4.112,0,0,1-.914.227,3.206,3.206,0,0,1-1.039-.07A2.638,2.638,0,0,1,33.055.094a2.428,2.428,0,0,1-.844-.4,2.949,2.949,0,0,1-.641-.656,3.937,3.937,0,0,1-.445-.8,4.141,4.141,0,0,1,.063-1.617,5.454,5.454,0,0,1,.539-1.344,7.127,7.127,0,0,1,.8-1.141q.453-.523.875-1.023a.16.16,0,0,0,.148-.008.415.415,0,0,0,.1-.109,1.278,1.278,0,0,1,.1-.133.234.234,0,0,1,.133-.078.753.753,0,0,1,.32-.352.868.868,0,0,0,.336-.336A.689.689,0,0,0,34.781-8a1.523,1.523,0,0,0,.18-.141q.086-.078.18-.148a.6.6,0,0,1,.219-.1v-.172a1.094,1.094,0,0,0,.414-.289l.32-.4a2.149,2.149,0,0,1,.227-.016,1.585,1.585,0,0,0,.258-.031,1.829,1.829,0,0,1,.227-.328,1.477,1.477,0,0,1,.3-.234,1.323,1.323,0,0,0,.414.125.685.685,0,0,1,.4.2.411.411,0,0,0,.094.242,1.225,1.225,0,0,0,.172.156q.094.07.18.148a.4.4,0,0,1,.117.219q.063.016.086-.016t.086-.016a.687.687,0,0,0,.109.289.793.793,0,0,1,.125.273,1.482,1.482,0,0,0-.117.32.352.352,0,0,1-.2.242q-.016.109.063.117a.1.1,0,0,1,.094.086.239.239,0,0,1-.047.2,10.393,10.393,0,0,1,.672,1.289A10.393,10.393,0,0,0,40.031-4.687ZM38.078-3.2a.819.819,0,0,1,.164-.281.525.525,0,0,0,.117-.328.7.7,0,0,1-.094-.2,1.16,1.16,0,0,1-.016-.227,6.173,6.173,0,0,1-.594-1.039,7.9,7.9,0,0,0-.562-1.039.392.392,0,0,1-.109.125q-.078.062-.172-.031a.3.3,0,0,1-.109.18.254.254,0,0,1-.172.047.709.709,0,0,1-.2-.047.671.671,0,0,1-.18-.1q-.453.359-.906.7a4.523,4.523,0,0,0-.812.8q-.063.031-.078.023t-.094.023a2.581,2.581,0,0,1-.3.539q-.18.242-.352.492a3.3,3.3,0,0,0-.3.531,1.79,1.79,0,0,0-.141.656,1.208,1.208,0,0,0,.625.266,3.515,3.515,0,0,0,.742.016,7.024,7.024,0,0,0,.75-.1,3.631,3.631,0,0,1,.68-.07,4.493,4.493,0,0,0,1.125-.414Q37.563-2.937,38.078-3.2ZM50.094-4.687a1.03,1.03,0,0,0,.031.359,2.565,2.565,0,0,0,.117.336q.07.164.133.336a2.109,2.109,0,0,1,.094.344,1.822,1.822,0,0,1,0,.477,2.672,2.672,0,0,1-.109.5,1.875,1.875,0,0,1-.2.438.826.826,0,0,1-.3.289,1.537,1.537,0,0,1-.531.438A3.056,3.056,0,0,0,48.75-.8a1.186,1.186,0,0,1-.383.156l-.43.094q-.172.094-.406.2t-.484.188a2.926,2.926,0,0,1-.5.125,1.868,1.868,0,0,1-.437.023A4.112,4.112,0,0,1,45.2.211a3.206,3.206,0,0,1-1.039-.07A2.638,2.638,0,0,1,43.117.094a2.428,2.428,0,0,1-.844-.4,2.949,2.949,0,0,1-.641-.656,3.937,3.937,0,0,1-.445-.8,4.141,4.141,0,0,1,.063-1.617,5.454,5.454,0,0,1,.539-1.344,7.127,7.127,0,0,1,.8-1.141q.453-.523.875-1.023a.16.16,0,0,0,.148-.008.415.415,0,0,0,.1-.109,1.278,1.278,0,0,1,.1-.133.234.234,0,0,1,.133-.078.753.753,0,0,1,.32-.352.868.868,0,0,0,.336-.336A.689.689,0,0,0,44.844-8a1.523,1.523,0,0,0,.18-.141q.086-.078.18-.148a.6.6,0,0,1,.219-.1v-.172a1.094,1.094,0,0,0,.414-.289l.32-.4a2.149,2.149,0,0,1,.227-.016,1.585,1.585,0,0,0,.258-.031,1.829,1.829,0,0,1,.227-.328,1.477,1.477,0,0,1,.3-.234,1.323,1.323,0,0,0,.414.125.685.685,0,0,1,.4.2.411.411,0,0,0,.094.242,1.225,1.225,0,0,0,.172.156q.094.07.18.148a.4.4,0,0,1,.117.219q.063.016.086-.016t.086-.016a.687.687,0,0,0,.109.289.793.793,0,0,1,.125.273,1.482,1.482,0,0,0-.117.32.352.352,0,0,1-.2.242q-.016.109.063.117a.1.1,0,0,1,.094.086.239.239,0,0,1-.047.2,10.393,10.393,0,0,1,.672,1.289A10.393,10.393,0,0,0,50.094-4.687ZM48.141-3.2a.819.819,0,0,1,.164-.281.525.525,0,0,0,.117-.328.7.7,0,0,1-.094-.2,1.16,1.16,0,0,1-.016-.227,6.173,6.173,0,0,1-.594-1.039,7.9,7.9,0,0,0-.562-1.039.392.392,0,0,1-.109.125q-.078.062-.172-.031a.3.3,0,0,1-.109.18.254.254,0,0,1-.172.047.709.709,0,0,1-.2-.047.671.671,0,0,1-.18-.1q-.453.359-.906.7a4.523,4.523,0,0,0-.812.8q-.063.031-.078.023t-.094.023a2.581,2.581,0,0,1-.3.539q-.18.242-.352.492a3.3,3.3,0,0,0-.3.531,1.79,1.79,0,0,0-.141.656,1.208,1.208,0,0,0,.625.266,3.515,3.515,0,0,0,.742.016,7.024,7.024,0,0,0,.75-.1,3.631,3.631,0,0,1,.68-.07,4.493,4.493,0,0,0,1.125-.414Q47.625-2.937,48.141-3.2Zm5.422,1.578a8.566,8.566,0,0,1-.3.945,2.948,2.948,0,0,1-.4.664.323.323,0,0,0-.281.047,1.124,1.124,0,0,1-.172.141.326.326,0,0,1-.2,0A.564.564,0,0,1,52.094.1a.761.761,0,0,0-.117-.078.447.447,0,0,0-.211-.039q-.031-.125-.07-.234t-.211-.078A.51.51,0,0,0,51.5-.539,1.141,1.141,0,0,0,51.461-.7a1.416,1.416,0,0,1-.039-.141.376.376,0,0,1,.016-.18q-.078,0-.125-.109a2.141,2.141,0,0,0-.109-.219q.047-.281.094-.531a3.852,3.852,0,0,1,.117-.469q.07-.219.117-.437a.767.767,0,0,0-.047-.453q.063.047.094-.023a.7.7,0,0,0,.047-.187,1.771,1.771,0,0,0,.016-.234,1.02,1.02,0,0,0-.016-.2,6.474,6.474,0,0,0,.258-.836q.1-.43.188-.852t.18-.828a3.96,3.96,0,0,1,.25-.75.772.772,0,0,1,.383.039.4.4,0,0,1,.258.18,3.441,3.441,0,0,0,.719-.758q.312-.445.641-.867a4.725,4.725,0,0,1,.727-.75,1.84,1.84,0,0,1,1.008-.391q.312.234.7.477a2.038,2.038,0,0,1,.633.633,1.133,1.133,0,0,1,.211.133,2.059,2.059,0,0,0,.211.148v.188a1.423,1.423,0,0,1,.3.4,4.112,4.112,0,0,1,.211.484l.188.516a3.814,3.814,0,0,0,.219.492.37.37,0,0,0-.031.133.335.335,0,0,0,.023.117,1.151,1.151,0,0,1,.039.125.468.468,0,0,1,0,.172,1.73,1.73,0,0,1-.445,1.109,3.276,3.276,0,0,1-.961.7,7.682,7.682,0,0,1-1.2.461A10.578,10.578,0,0,0,55.172-3q0,.063.055.063t.039.078q.375.234.594.375a3.866,3.866,0,0,0,.414.234,3.091,3.091,0,0,0,.422.164q.227.07.633.164t.633.148q.227.055.414.094t.383.063q.2.023.555.055a1.354,1.354,0,0,1,.242.336,1.286,1.286,0,0,1,.133.391,1.53,1.53,0,0,1,.016.375.5.5,0,0,1-.109.289.057.057,0,0,0,.07.039.3.3,0,0,1,.117.008.558.558,0,0,0-.156.156L59.5.219a.864.864,0,0,1-.141.164.381.381,0,0,1-.219.086,2.11,2.11,0,0,1-1.219.023,13.48,13.48,0,0,1-1.859-.6q-.562-.219-.914-.383a5.375,5.375,0,0,1-.609-.328,3.667,3.667,0,0,1-.469-.352ZM55.8-6.984a2.935,2.935,0,0,1-.383.453q-.211.2-.406.414a2.9,2.9,0,0,0-.352.469,1.756,1.756,0,0,0-.219.6,4.329,4.329,0,0,0,1.141-.3L56.7-5.812a1.38,1.38,0,0,0-.336-.781A1.338,1.338,0,0,0,55.8-6.984ZM-26.9,10.75a6.076,6.076,0,0,1-.094.719,6.147,6.147,0,0,1-.172.656q-.266,1.266-.617,2.406a13.416,13.416,0,0,1-.8,2.047,10.416,10.416,0,0,1-.789.8,2.218,2.218,0,0,1-.852.484q-.234.031-.414.07t-.352.086l-.164.031a.85.85,0,0,0-.164.047q-.234-.047-.445-.07A3.494,3.494,0,0,0-32.148,18l-.2-.062q-.156-.047-.242-.078l-.156-.055a1.14,1.14,0,0,0-.156-.039q-.086-.016-.273-.031a1.183,1.183,0,0,1-.437.094,1.071,1.071,0,0,1-.609-.234,1.837,1.837,0,0,1-.547-1,4.064,4.064,0,0,1,.086-.523,1.714,1.714,0,0,1,.117-.352,1.321,1.321,0,0,1,.625-.219,1.746,1.746,0,0,1,.57.094q.273.094.539.2a.945.945,0,0,1,.172.078.765.765,0,0,0,.078.047.155.155,0,0,0,.07.016h.164a.959.959,0,0,0,.133-.008,1.164,1.164,0,0,0,.117-.023l.156.016a.483.483,0,0,0,.219.047,1.285,1.285,0,0,0,.391-.078,1.07,1.07,0,0,1,.18-.062l.148-.031.125-.125a.608.608,0,0,0,.211-.109.805.805,0,0,0,.125-.141,1.359,1.359,0,0,0,.1-.172,1.54,1.54,0,0,1,.125-.2q.062-.078.117-.156t.117-.156v-.156a8.87,8.87,0,0,0,.359-.945q.156-.492.281-.992t.211-.969q.086-.469.148-.844h-.156q-.391,0-.641.008t-.453.031q-.2.023-.43.07t-.57.109l-.234.047a4.727,4.727,0,0,1-.469.219,1.254,1.254,0,0,1-.469.094.89.89,0,0,1-.687-.312.755.755,0,0,1-.344-.531.235.235,0,0,1-.047-.219,1.076,1.076,0,0,1-.062-.336V9.516h.2q.078-.078.109-.117a.263.263,0,0,0,.047-.1l.172-.141q.266-.031.555-.086t.6-.117q.3-.063.508-.094t.406-.047q.2-.016.406-.023t.492-.008h.359a.159.159,0,0,1,.1-.07A.646.646,0,0,1-29.6,8.7a.406.406,0,0,1,.125.016.606.606,0,0,1,.078.031,7.2,7.2,0,0,1,.813-.1q.375-.023.672-.023h.289a2.077,2.077,0,0,1,.258.016h.859a1.416,1.416,0,0,1,.25-.016q.25,0,.32.008t.258.039l.4.055a2.836,2.836,0,0,0,.367.023h.234l.047.156.125.156a.373.373,0,0,0,.1.141q.07.063.148.141a3.061,3.061,0,0,1,.3.359.858.858,0,0,1,.1.609l-.109.172a.619.619,0,0,0-.187.141l-.141.125q-.172.016-.3.023t-.25.008q-.234,0-.477-.016l-.508-.031h-.906A1.292,1.292,0,0,0-26.9,10.75ZM-17.2,9.2a.632.632,0,0,1,.008.164q-.008.055-.016.1a.619.619,0,0,0-.008.1.662.662,0,0,0,.031.164,1.791,1.791,0,0,1-.758.727,3.787,3.787,0,0,1-.93.281q-.5.086-1.023.18a3.035,3.035,0,0,0-1.039.406.45.45,0,0,0-.367,0,.926.926,0,0,1-.477.047.522.522,0,0,1-.234.133q-.141.039-.281.086a.622.622,0,0,1,.055.289.484.484,0,0,0,.039.242,6.8,6.8,0,0,0,1.211-.016q.664-.063,1.3-.078.016.078-.016.1t-.016.086a1.476,1.476,0,0,1,.219.2q.109.117.219.227a1.182,1.182,0,0,0,.227.18.434.434,0,0,0,.273.055.933.933,0,0,1,.086.273.57.57,0,0,1-.039.3q-.25.172-.5.352a4.139,4.139,0,0,1-.523.32,3.1,3.1,0,0,1-.578.227,2.166,2.166,0,0,1-.68.07h-.117a.189.189,0,0,1-.1-.047.524.524,0,0,1-.352.047.524.524,0,0,0-.352.047.922.922,0,0,0-.414-.07,1.23,1.23,0,0,1-.43-.055,5.407,5.407,0,0,0-.453.7,6.169,6.169,0,0,0-.359.8,4.8,4.8,0,0,0,.883.063q.352-.016.664-.055l.641-.078a5.711,5.711,0,0,1,.828-.023,2.071,2.071,0,0,1,.742-.227,3.9,3.9,0,0,0,.789-.18.507.507,0,0,1,.219.164q.094.117.18.219a1.463,1.463,0,0,0,.18.18.3.3,0,0,0,.234.063.329.329,0,0,1,.086.148q.023.086.039.164a.34.34,0,0,0,.055.133.125.125,0,0,0,.133.039,2.354,2.354,0,0,1-.539.789,2.091,2.091,0,0,1-.7.414,4.9,4.9,0,0,1-.867.219q-.477.078-1.055.188a.388.388,0,0,1-.234-.008.566.566,0,0,0-.219-.039q-.359.078-.859.141A6.572,6.572,0,0,1-23.4,18.2a4.626,4.626,0,0,1-.984-.133,1.607,1.607,0,0,1-.766-.414.511.511,0,0,1-.164-.258.347.347,0,0,0-.211-.227,4.251,4.251,0,0,0-.062-.453q-.047-.25-.094-.523t-.07-.539a1.628,1.628,0,0,1,.023-.484.98.98,0,0,1,.2-.422.469.469,0,0,0,.1-.406.108.108,0,0,0,.094-.086q.016-.07.125-.055.094-.281.2-.531t.227-.484q.117-.234.234-.477t.227-.539a1.289,1.289,0,0,1-.32-.445,2.46,2.46,0,0,1-.148-.484q-.047-.242-.078-.5a3.233,3.233,0,0,0-.109-.523,1.34,1.34,0,0,1,.383-.383,2.277,2.277,0,0,1,.492-.242,4.231,4.231,0,0,1,.578-.156q.313-.063.656-.141.625-.2,1.117-.312t.969-.18q.477-.07.992-.133t1.172-.187a.394.394,0,0,0,.266.141q.062-.141.148-.086t.07-.086a1.486,1.486,0,0,0,.4.445A2.581,2.581,0,0,0-17.2,9.2Zm14.969,8.234a8.873,8.873,0,0,1-1.32-.031,3.9,3.9,0,0,1-1.117-.3.169.169,0,0,1-.062-.078.364.364,0,0,0-.062-.094.442.442,0,0,0-.227-.039.607.607,0,0,1-.227-.023,3.985,3.985,0,0,1-.391-.242q-.266-.18-.484-.336-.281-.219-.531-.437a3.075,3.075,0,0,1-.437-.469.171.171,0,0,0-.125-.07.4.4,0,0,1-.141-.039,2.744,2.744,0,0,0-.766.7q-.312.422-.594.859a9.855,9.855,0,0,1-.594.828,1.983,1.983,0,0,1-.8.594.629.629,0,0,1-.25-.047.982.982,0,0,1-.2-.117q-.094-.07-.187-.133a.721.721,0,0,0-.2-.094.828.828,0,0,0-.07-.344q-.07-.156-.141-.3a1.258,1.258,0,0,1-.1-.273A.3.3,0,0,1-11.2,16.7a1.409,1.409,0,0,0-.281-.2.226.226,0,0,0,.086-.172.573.573,0,0,0-.039-.156A1.335,1.335,0,0,1-11.484,16a.228.228,0,0,1,.039-.187.7.7,0,0,0,.188-.031q-.094-.125-.086-.148t-.039-.07q-.031-.094.031-.117a1.3,1.3,0,0,0,.125-.055,6.622,6.622,0,0,1,.266-1.422q.2-.656.453-1.266t.492-1.234a9.016,9.016,0,0,0,.4-1.344,1.3,1.3,0,0,0,.273-.406q.1-.234.219-.469a4.572,4.572,0,0,1,.266-.461,1.1,1.1,0,0,1,.414-.367.88.88,0,0,1,.391.117.724.724,0,0,0,.422.086q.047.078.086.156a.885.885,0,0,0,.1.156l.234-.047a1.44,1.44,0,0,1,.3.352,1.314,1.314,0,0,1,.18.445.915.915,0,0,1-.016.445.563.563,0,0,1-.3.336.325.325,0,0,1,.008.117.279.279,0,0,1-.023.07.139.139,0,0,0-.016.063.19.19,0,0,0,.047.094,1.4,1.4,0,0,0-.469.656,2.548,2.548,0,0,0-.172.75,4.823,4.823,0,0,1,.414-.367q.227-.18.469-.352t.469-.328q.227-.156.414-.312a6.539,6.539,0,0,1,.992-.758q.477-.289,1.008-.648a.363.363,0,0,1,.2-.008q.07.023.148.055,0-.094-.055-.109t-.039-.125a2.15,2.15,0,0,0,.406-.148q.172-.086.375-.164.141.141.266.289a.529.529,0,0,0,.344.18.675.675,0,0,0,.188.258q.109.086.219.164a.95.95,0,0,1,.2.188.626.626,0,0,1,.1.344l-.133.234a2.009,2.009,0,0,0-.133.3,6.04,6.04,0,0,1-.633.5q-.32.219-.648.422t-.672.406a6.571,6.571,0,0,0-.7.484.868.868,0,0,1-.2.2q-.117.086-.242.172a2.778,2.778,0,0,0-.234.18.7.7,0,0,0-.172.219.3.3,0,0,1-.094.016.3.3,0,0,0-.094.016.367.367,0,0,1-.148.172.29.29,0,0,0-.133.172,1.9,1.9,0,0,0,.609.766,2.489,2.489,0,0,0,.844.383,4.444,4.444,0,0,0,1.016.125q.547.008,1.141.008.063-.016.055-.07t.07-.039a1.316,1.316,0,0,1,.578.352,3.694,3.694,0,0,0,.484.445,1.616,1.616,0,0,1-.359.984A2.3,2.3,0,0,1-2.227,17.438Zm5.031.391q-.438.141-.953.281A3.9,3.9,0,0,1,.82,18.25a1.827,1.827,0,0,1-1.234-.391.847.847,0,0,0-.141-.234,1.159,1.159,0,0,1-.086-.133A.549.549,0,0,1-.7,17.3a1.693,1.693,0,0,1-.3-.508,2.61,2.61,0,0,1-.148-.594,3.048,3.048,0,0,1-.016-.617,3.072,3.072,0,0,1,.1-.594.386.386,0,0,0,.039-.125q.008-.063.023-.141.063-.25.133-.484a1.338,1.338,0,0,1,.2-.406.405.405,0,0,1,0-.312A2.17,2.17,0,0,1-.523,13.2q.219-.594.367-1.008t.3-.82q.266-.7.5-1.391T1.07,8.5q.125-.078.188-.109.094-.031.156-.047a5.826,5.826,0,0,0,.656.273A1.95,1.95,0,0,0,2.7,8.75a.718.718,0,0,1,.156.117.852.852,0,0,0,.063.07,3.047,3.047,0,0,1,.3.414.848.848,0,0,1,.078.555q-.094.141-.141.141a4.378,4.378,0,0,1-.164.531q-.086.219-.18.438-.109.234-.2.469a3.042,3.042,0,0,0-.156.578.537.537,0,0,0-.086.141q-.023.063-.055.141t-.07.164a.4.4,0,0,1-.117.148,2.561,2.561,0,0,1-.148.656q-.1.25-.211.5-.187.453-.336.906a4.009,4.009,0,0,0-.18,1.031.4.4,0,0,1,.148-.031h.133a1.377,1.377,0,0,1,.328.047,2.619,2.619,0,0,1,1.023-.3q.555-.047,1.1-.062h.438a2.475,2.475,0,0,0,.406-.031.92.92,0,0,0,.18.086.647.647,0,0,0,.117.008.97.97,0,0,1,.188.016,1.409,1.409,0,0,0,.359.25,3.68,3.68,0,0,0,.359.141q.172.063.336.133a1.392,1.392,0,0,1,.32.2l.109.672q.109.141.094.188a.255.255,0,0,1-.062.188l.031.172a.885.885,0,0,0-.32.109,1.379,1.379,0,0,0-.164.141,1.651,1.651,0,0,1-.18.016h-.1a2.252,2.252,0,0,0-.531.078,2.749,2.749,0,0,0-.875-.141q-.172,0-.359.016l-.375.031q-.187.031-.383.047t-.4.016Zm12.672-1.141a2.5,2.5,0,0,1-.273.539,2.334,2.334,0,0,1-.961.836,1.627,1.627,0,0,1-.625.156.767.767,0,0,1-.273-.1,1.491,1.491,0,0,0-.148-.1l-.086-.055q-.039-.023-.07-.039l-.187-.078.063-.2a.24.24,0,0,0-.016-.2,1.19,1.19,0,0,0-.187-.2l-.094-.094a.621.621,0,0,1-.078-.094l-.266-.3.422-.109a.993.993,0,0,0,.523-.281.854.854,0,0,0,.1-.578,1.291,1.291,0,0,0-.523-.016q-.211.047-.43.109-.281.078-.57.133a3.41,3.41,0,0,1-.633.055q-.125,0-.234-.008t-.234-.023l-.156-.031a.417.417,0,0,0-.062-.2.587.587,0,0,1-.062-.055,1.3,1.3,0,0,1-.164-.211.423.423,0,0,1-.039-.336.748.748,0,0,1-.094-.281,1.751,1.751,0,0,0-.141.391l-.062.156-.156.031a.105.105,0,0,0-.047.07.335.335,0,0,0-.016.086l-.078.266a.587.587,0,0,1-.062.055.587.587,0,0,0-.062.055,2.831,2.831,0,0,1-.078.281q-.047.141-.094.266-.078.2-.133.4a1.079,1.079,0,0,0-.039.383l-.062.172a.653.653,0,0,1-.172.148q-.094.055-.187.1a.271.271,0,0,1-.086.055l-.086.039-.047.172-.187.031q-.172.031-.242.047a.763.763,0,0,1-.164.016l-.156-.016q-.172-.141-.266-.227a1.5,1.5,0,0,0-.219-.164.781.781,0,0,1-.156-.281q-.016-.094-.031-.172a.847.847,0,0,1-.039-.156.156.156,0,0,0-.039-.094l-.2-.187.172-.141.016-.266q.313-.8.664-1.531t.727-1.5q.125-.25.242-.5t.242-.5a.346.346,0,0,1-.016-.109.384.384,0,0,1,.031-.141q.172-.266.281-.477t.219-.43q.125-.266.258-.516a3.758,3.758,0,0,1,.336-.516l.25-.109.109-.039a.4.4,0,0,1,.141-.023l.234.031a2.339,2.339,0,0,0,.766-.57,7.928,7.928,0,0,0,.672-.883l.156-.219.2.125a.908.908,0,0,0,.219.086q.141.039.3.086.281.063.531.141a.973.973,0,0,1,.406.234,1.85,1.85,0,0,1,.109.375,2.108,2.108,0,0,0,.047.25q.047.266.086.531t.055.594q.078.266.133.523t.1.523q.078.375.156.727a4.292,4.292,0,0,0,.2.664.457.457,0,0,1,.156.016.85.85,0,0,1,.164-.047q.086-.016.2-.031l.172-.016.063.156q.016.078.156.156a.574.574,0,0,1,.3.086,1.6,1.6,0,0,1,.172.148.49.49,0,0,0,.125.094l.234.094-.125.234a2.094,2.094,0,0,1-.445.539,2.752,2.752,0,0,1-.648.43q.016.094.023.18a.8.8,0,0,0,.039.18q.047.266.078.547a2.681,2.681,0,0,1,0,.578Zm-4.516-2.7q.469-.031.852-.07t.852-.133q-.109-.469-.234-.977T12.164,11.8l-.094.156a6.666,6.666,0,0,0-.6.734,8.811,8.811,0,0,0-.492.766l-.187.281q-.094.141-.172.281A1.094,1.094,0,0,1,10.8,14,.835.835,0,0,0,10.961,13.984Zm13.813,2.7a2.5,2.5,0,0,1-.273.539,2.334,2.334,0,0,1-.961.836,1.627,1.627,0,0,1-.625.156.767.767,0,0,1-.273-.1,1.491,1.491,0,0,0-.148-.1l-.086-.055q-.039-.023-.07-.039l-.187-.078.063-.2a.24.24,0,0,0-.016-.2,1.19,1.19,0,0,0-.187-.2l-.094-.094a.621.621,0,0,1-.078-.094l-.266-.3.422-.109a.993.993,0,0,0,.523-.281.854.854,0,0,0,.1-.578,1.291,1.291,0,0,0-.523-.016q-.211.047-.43.109-.281.078-.57.133a3.41,3.41,0,0,1-.633.055q-.125,0-.234-.008t-.234-.023l-.156-.031a.417.417,0,0,0-.062-.2.587.587,0,0,1-.062-.055,1.3,1.3,0,0,1-.164-.211.423.423,0,0,1-.039-.336.748.748,0,0,1-.094-.281,1.751,1.751,0,0,0-.141.391l-.062.156-.156.031a.105.105,0,0,0-.047.07.335.335,0,0,0-.016.086l-.078.266a.587.587,0,0,1-.062.055.587.587,0,0,0-.062.055,2.832,2.832,0,0,1-.078.281q-.047.141-.094.266-.078.2-.133.4a1.079,1.079,0,0,0-.039.383l-.062.172a.653.653,0,0,1-.172.148q-.094.055-.187.1a.271.271,0,0,1-.086.055l-.086.039-.047.172-.187.031q-.172.031-.242.047a.763.763,0,0,1-.164.016l-.156-.016q-.172-.141-.266-.227a1.5,1.5,0,0,0-.219-.164.781.781,0,0,1-.156-.281q-.016-.094-.031-.172a.847.847,0,0,1-.039-.156.156.156,0,0,0-.039-.094l-.2-.187.172-.141.016-.266q.313-.8.664-1.531t.727-1.5q.125-.25.242-.5t.242-.5a.346.346,0,0,1-.016-.109.384.384,0,0,1,.031-.141q.172-.266.281-.477t.219-.43q.125-.266.258-.516a3.758,3.758,0,0,1,.336-.516l.25-.109.109-.039a.4.4,0,0,1,.141-.023l.234.031a2.339,2.339,0,0,0,.766-.57,7.928,7.928,0,0,0,.672-.883l.156-.219.2.125a.908.908,0,0,0,.219.086q.141.039.3.086.281.063.531.141a.973.973,0,0,1,.406.234,1.85,1.85,0,0,1,.109.375,2.108,2.108,0,0,0,.047.25q.047.266.086.531t.055.594q.078.266.133.523t.1.523q.078.375.156.727a4.292,4.292,0,0,0,.2.664.457.457,0,0,1,.156.016.85.85,0,0,1,.164-.047q.086-.016.2-.031l.172-.016.063.156q.016.078.156.156a.574.574,0,0,1,.3.086,1.6,1.6,0,0,1,.172.148.49.49,0,0,0,.125.094l.234.094-.125.234a2.094,2.094,0,0,1-.445.539,2.752,2.752,0,0,1-.648.43q.016.094.023.18a.8.8,0,0,0,.039.18q.047.266.078.547a2.681,2.681,0,0,1,0,.578Zm-4.516-2.7q.469-.031.852-.07t.852-.133q-.109-.469-.234-.977T21.461,11.8l-.094.156a6.666,6.666,0,0,0-.6.734,8.81,8.81,0,0,0-.492.766l-.187.281q-.094.141-.172.281a1.094,1.094,0,0,1,.18-.016A.835.835,0,0,0,20.258,13.984Zm8.063,2.391a8.567,8.567,0,0,1-.3.945,2.948,2.948,0,0,1-.4.664.323.323,0,0,0-.281.047,1.124,1.124,0,0,1-.172.141.326.326,0,0,1-.2,0,.564.564,0,0,1-.109-.07.761.761,0,0,0-.117-.078.447.447,0,0,0-.211-.039q-.031-.125-.07-.234t-.211-.078a.51.51,0,0,0,.016-.211,1.14,1.14,0,0,0-.039-.156,1.416,1.416,0,0,1-.039-.141.376.376,0,0,1,.016-.18q-.078,0-.125-.109a2.141,2.141,0,0,0-.109-.219q.047-.281.094-.531a3.852,3.852,0,0,1,.117-.469q.07-.219.117-.437a.767.767,0,0,0-.047-.453q.062.047.094-.023a.7.7,0,0,0,.047-.187,1.772,1.772,0,0,0,.016-.234,1.02,1.02,0,0,0-.016-.2,6.475,6.475,0,0,0,.258-.836q.1-.43.188-.852t.18-.828a3.96,3.96,0,0,1,.25-.75.772.772,0,0,1,.383.039.4.4,0,0,1,.258.18,3.441,3.441,0,0,0,.719-.758q.313-.445.641-.867a4.725,4.725,0,0,1,.727-.75,1.84,1.84,0,0,1,1.008-.391q.313.234.7.477a2.038,2.038,0,0,1,.633.633,1.133,1.133,0,0,1,.211.133,2.059,2.059,0,0,0,.211.148v.188a1.423,1.423,0,0,1,.3.4,4.112,4.112,0,0,1,.211.484l.188.516a3.814,3.814,0,0,0,.219.492.37.37,0,0,0-.031.133.335.335,0,0,0,.023.117,1.151,1.151,0,0,1,.039.125.468.468,0,0,1,0,.172,1.73,1.73,0,0,1-.445,1.109,3.276,3.276,0,0,1-.961.7,7.682,7.682,0,0,1-1.2.461A10.578,10.578,0,0,0,29.93,15q0,.063.055.063t.039.078q.375.234.594.375a3.866,3.866,0,0,0,.414.234,3.091,3.091,0,0,0,.422.164q.227.07.633.164t.633.148q.227.055.414.094t.383.063q.2.023.555.055a1.354,1.354,0,0,1,.242.336,1.286,1.286,0,0,1,.133.391,1.53,1.53,0,0,1,.016.375.5.5,0,0,1-.109.289.057.057,0,0,0,.07.039.3.3,0,0,1,.117.008.558.558,0,0,0-.156.156l-.125.188a.864.864,0,0,1-.141.164.381.381,0,0,1-.219.086,2.11,2.11,0,0,1-1.219.023,13.48,13.48,0,0,1-1.859-.6q-.562-.219-.914-.383a5.375,5.375,0,0,1-.609-.328,3.667,3.667,0,0,1-.469-.352Zm2.234-5.359a2.935,2.935,0,0,1-.383.453q-.211.2-.406.414a2.9,2.9,0,0,0-.352.469,1.756,1.756,0,0,0-.219.6,4.329,4.329,0,0,0,1.141-.3l1.125-.461a1.38,1.38,0,0,0-.336-.781A1.338,1.338,0,0,0,30.555,11.016Z" transform="matrix(0.996, 0.087, -0.087, 0.996, 60.783, 16.835)" fill="#373a36"/></svg>