<svg xmlns="http://www.w3.org/2000/svg" xmlns:xlink="http://www.w3.org/1999/xlink" width="1207.247" height="1169.112" viewBox="0 0 1207.247 1169.112"><defs><filter id="a" x="0" y="0" width="1207.247" height="1169.112" filterUnits="userSpaceOnUse"><feOffset dy="20" input="SourceAlpha"/><feGaussianBlur stdDeviation="12.5" result="b"/><feFlood flood-opacity="0.102"/><feComposite operator="in" in2="b"/><feComposite in="SourceGraphic"/></filter></defs><g transform="translate(-394.208 17.5)"><g transform="matrix(1, 0, 0, 1, 394.21, -17.5)" filter="url(#a)"><path d="M240.948,0h.01a231.362,231.362,0,0,1,42.713,4.014c7.437,1.4,14.952,3.194,22.336,5.328,7.629,2.2,15.329,4.836,22.884,7.819,11.621,4.588,27.628,11.76,47.577,21.315,19.285,9.238,41.775,20.472,66.846,33.391,50.452,26,108.761,57.513,164.188,88.741,60.722,34.21,115.712,66.762,159.026,94.136,23.828,15.059,44.153,28.568,60.41,40.154,17.493,12.466,30.49,22.862,38.63,30.9,8.812,8.7,16.291,16.627,22.862,24.236a233.958,233.958,0,0,1,18.009,23.447c10.725,16.14,17.244,31.546,19.928,47.1a97.852,97.852,0,0,1,1.324,12.247,100.783,100.783,0,0,1-.239,12.564,111.048,111.048,0,0,1-1.841,12.94,129.776,129.776,0,0,1-3.478,13.383,178.508,178.508,0,0,1-12,28.389,295.529,295.529,0,0,1-18.97,31.078c-14.381,20.808-38.867,45.057-72.777,72.071-15.634,12.456-33.339,25.538-52.622,38.885-18.451,12.771-38.536,25.915-59.7,39.068-20.393,12.675-41.908,25.434-63.944,37.923-21.455,12.16-43.446,24.086-65.361,35.448-21.615,11.206-43.13,21.85-63.948,31.636C491.981,796,471.892,804.915,453.108,812.7c-23.063,9.554-47.069,18.207-71.351,25.719-23.6,7.3-47.583,13.561-71.29,18.613-23.3,4.964-46.38,8.772-68.61,11.317a560.434,560.434,0,0,1-63.323,3.819c-24.536,0-46.8-1.945-66.17-5.782-20.028-3.968-36.82-9.934-49.911-17.735a138.465,138.465,0,0,1-12.362-8.277,120.217,120.217,0,0,1-10.755-9.118,111.007,111.007,0,0,1-9.23-9.976,109.163,109.163,0,0,1-7.789-10.846c-9.062-14.4-15.156-31.486-18.629-52.222a268.019,268.019,0,0,1-3.227-31.62c-.512-10.678-.6-22.3-.258-35.528.663-25.915,2.949-55.49,5.234-83.562,5.2-63.912,7.669-109.261,8.517-156.531.914-51-.087-105.154-2-176-.49-18.193-.231-35.48.771-51.381a389.532,389.532,0,0,1,4.951-42.821,272.51,272.51,0,0,1,8.565-35.33,204.622,204.622,0,0,1,11.61-28.885A168.358,168.358,0,0,1,67.848,73.985,201.04,201.04,0,0,1,84.989,58.239c5.207-4.283,10.84-8.562,17.729-13.466a241.728,241.728,0,0,1,27.14-16.7A248.244,248.244,0,0,1,162.37,13.762,233.49,233.49,0,0,1,240.948,0ZM178.533,867.609a555.364,555.364,0,0,0,62.771-3.787c22.076-2.528,45.007-6.31,68.152-11.241,23.566-5.022,47.411-11.248,70.87-18.5,24.14-7.468,48.006-16.07,70.933-25.569,18.715-7.753,38.735-16.634,59.5-26.4s42.221-20.377,63.782-31.554c21.863-11.336,43.8-23.233,65.206-35.364,21.981-12.457,43.44-25.184,63.779-37.826,21.094-13.111,41.113-26.212,59.5-38.939,19.2-13.287,36.816-26.306,52.369-38.7,33.554-26.732,57.73-50.649,71.856-71.087a291.024,291.024,0,0,0,18.679-30.6,174.012,174.012,0,0,0,11.7-27.67c5.465-17.292,6.8-33.337,4.092-49.049-2.577-14.93-8.872-29.776-19.245-45.385a229.552,229.552,0,0,0-17.661-22.989c-6.49-7.516-13.886-15.356-22.612-23.969-7.965-7.862-20.77-18.1-38.06-30.417-16.187-11.537-36.439-25-60.193-40.009-43.248-27.333-98.167-59.842-158.821-94.014-55.376-31.2-113.631-62.684-164.032-88.656-25.03-12.9-47.479-24.112-66.722-33.329-19.848-9.506-35.751-16.632-47.267-21.18A244.343,244.343,0,0,0,282.774,8.486a226.54,226.54,0,0,0-41.816-3.93h-.01a228.617,228.617,0,0,0-76.954,13.482A243.354,243.354,0,0,0,132.11,32.071,237.168,237.168,0,0,0,105.5,48.444c-6.8,4.84-12.35,9.055-17.471,13.268A196.568,196.568,0,0,0,71.282,77.1a163.889,163.889,0,0,0-29.193,41.433,200.082,200.082,0,0,0-11.353,28.253,268,268,0,0,0-8.423,34.75,385.209,385.209,0,0,0-4.893,42.333c-.993,15.77-1.25,32.924-.764,50.984,1.913,70.906,2.914,125.114,2,176.2-.849,47.368-3.321,92.8-8.53,156.81-2.279,28.01-4.56,57.515-5.221,83.317-.336,13.119-.253,24.635.254,35.2a263.951,263.951,0,0,0,3.17,31.1c3.375,20.143,9.263,36.687,18,50.579a104.636,104.636,0,0,0,7.462,10.392,106.153,106.153,0,0,0,8.845,9.56,115.73,115.73,0,0,0,10.337,8.763,133.811,133.811,0,0,0,11.94,7.993C89.992,859.71,129.28,867.609,178.533,867.609Z" transform="translate(37.5 273.23) rotate(-16)" fill="#fff" opacity="0.406"/></g><path d="M308.047,16.59C218.637-19.843,140.985,10.413,96.257,43.28s-88.744,77.509-84.949,222.9,3.3,204.794-6.173,324.891S-7.495,784.141,58.016,824.438s224.9,25.721,367.5-35.25,356.829-189.566,413.4-274.046,39.294-133.29-23.951-197.727S397.458,53.029,308.047,16.59Z" transform="translate(461.057 271.74) rotate(-16)" fill="#fff" opacity="0.192"/></g></svg>