<svg xmlns="http://www.w3.org/2000/svg" xmlns:xlink="http://www.w3.org/1999/xlink" width="630" height="458" viewBox="0 0 630 458"><defs><linearGradient id="a" x1="0.056" x2="0.664" y2="0.371" gradientUnits="objectBoundingBox"><stop offset="0" stop-color="#fdd42d"/><stop offset="1" stop-color="#e39f24"/></linearGradient><filter id="b" x="-37.5" y="-22.5" width="705" height="533" filterUnits="userSpaceOnUse"><feOffset dy="15" input="SourceAlpha"/><feGaussianBlur stdDeviation="12.5" result="c"/><feFlood flood-color="#edd5b0"/><feComposite operator="in" in2="c"/><feComposite in="SourceGraphic"/></filter><clipPath id="d"><g transform="matrix(1, 0, 0, 1, 0, 0)" filter="url(#b)"><rect width="630" height="458" rx="23" fill="url(#a)"/></g></clipPath><linearGradient id="e" x1="0.5" x2="0.5" y2="1" gradientUnits="objectBoundingBox"><stop offset="0" stop-color="#ede6dd"/><stop offset="1" stop-color="#f4f0ea" stop-opacity="0"/></linearGradient></defs><g opacity="0.296" clip-path="url(#d)"><path d="M246.883,13.3C175.225-15.9,112.992,8.345,77.144,34.687S6.022,96.806,9.063,213.326s2.643,164.13-4.948,260.381S-6.006,628.444,46.5,660.739s180.248,20.614,294.529-28.25S627,480.562,672.342,412.856s31.492-106.824-19.2-158.466S318.54,42.5,246.883,13.3Z" transform="translate(-117.477 -14.67) rotate(-8)" opacity="0.604" fill="url(#e)"/></g></svg>