<svg xmlns="http://www.w3.org/2000/svg" xmlns:xlink="http://www.w3.org/1999/xlink" width="914.578" height="706.539" viewBox="0 0 914.578 706.539">
  <defs>
    <linearGradient id="linear-gradient" x1="1.024" y1="-0.151" x2="0.403" y2="1" gradientUnits="objectBoundingBox">
      <stop offset="0" stop-color="#fff" stop-opacity="0"/>
      <stop offset="1" stop-color="#fff"/>
    </linearGradient>
  </defs>
  <path id="Пересечение_18" data-name="Пересечение 18" d="M8451.79,13563.755c-75.643-33.041-83.831-108.517-91.8-239.074-5.78-94.758-11.905-153.645-24.859-238.564v-53.379c18.877,116.032,26.276,178.193,33.185,291.438,7.771,127.3,15.632,200.844,86.813,231.939,26.553,11.595,66.08,14.144,114.312,7.364,81.262-11.421,175.943-47.027,259.761-97.691,148.771-89.926,345.183-253.508,389.166-344.457,46.784-96.747,18.952-142.406-52.72-197.469-17.882-13.739-54.092-33.076-100.187-54.888h19.064c39.391,19.088,70.122,35.916,86.205,48.272,73.573,56.526,104.152,106.369,55.145,207.713-48.748,100.811-262.938,269.738-392.357,347.967-84.748,51.225-180.578,87.241-262.918,98.813a362.669,362.669,0,0,1-50.215,3.774C8492.928,13575.514,8469.679,13571.567,8451.79,13563.755Z" transform="translate(-8335.13 -12868.974)" fill="url(#linear-gradient)"/>
</svg>
