<svg xmlns="http://www.w3.org/2000/svg" width="404" height="175" viewBox="0 0 404 175"><defs><mask id="rsa3b" width="2" height="2" x="-1" y="-1"><path fill="#fff" d="M355 0h36v151h-36z"/><path d="M365.274 150.467c5.089-10.668 9.293-20.857 12.508-30.31 3.373-9.914 5.795-19.434 7.202-28.292 2.77-17.439 1.844-33.128-2.831-47.96-4.443-14.096-12.356-27.622-24.194-41.347A181.87 181.87 0 0 0 355.827.13h5.91c12.014 14.03 20.082 27.917 24.658 42.437a98.633 98.633 0 0 1 2.905 11.667c.732 3.967 1.23 8.064 1.483 12.179.254 4.141.264 8.433.033 12.753a130.181 130.181 0 0 1-1.44 13.397c-1.445 9.107-3.93 18.873-7.383 29.027-3.076 9.048-7.04 18.745-11.798 28.877z"/></mask><filter id="rsa3a" width="106" height="241" x="320" y="-35" filterUnits="userSpaceOnUse"><feOffset dy="20" in="SourceGraphic" result="FeOffset1028Out"/><feGaussianBlur in="FeOffset1028Out" result="FeGaussianBlur1029Out" stdDeviation="10 10"/></filter></defs><g><g opacity=".19"><path fill="#fff" d="M17 150.462c-9.39 0-17-7.61-17-17V17.126c0-9.389 7.61-17 17-17h313.318c35.15 40.168 40.964 82.71 8.94 150.337z"/></g><g opacity=".41"><g filter="url(#rsa3a)"><path fill="none" d="M365.274 150.467c5.089-10.668 9.293-20.857 12.508-30.31 3.373-9.914 5.795-19.434 7.202-28.292 2.77-17.439 1.844-33.128-2.831-47.96-4.443-14.096-12.356-27.622-24.194-41.347A181.87 181.87 0 0 0 355.827.13h5.91c12.014 14.03 20.082 27.917 24.658 42.437a98.633 98.633 0 0 1 2.905 11.667c.732 3.967 1.23 8.064 1.483 12.179.254 4.141.264 8.433.033 12.753a130.181 130.181 0 0 1-1.44 13.397c-1.445 9.107-3.93 18.873-7.383 29.027-3.076 9.048-7.04 18.745-11.798 28.877z" mask="url(&quot;#rsa3b&quot;)"/><path fill-opacity=".1" d="M365.274 150.467c5.089-10.668 9.293-20.857 12.508-30.31 3.373-9.914 5.795-19.434 7.202-28.292 2.77-17.439 1.844-33.128-2.831-47.96-4.443-14.096-12.356-27.622-24.194-41.347A181.87 181.87 0 0 0 355.827.13h5.91c12.014 14.03 20.082 27.917 24.658 42.437a98.633 98.633 0 0 1 2.905 11.667c.732 3.967 1.23 8.064 1.483 12.179.254 4.141.264 8.433.033 12.753a130.181 130.181 0 0 1-1.44 13.397c-1.445 9.107-3.93 18.873-7.383 29.027-3.076 9.048-7.04 18.745-11.798 28.877z"/></g><path fill="#fff" d="M365.274 150.467c5.089-10.668 9.293-20.857 12.508-30.31 3.373-9.914 5.795-19.434 7.202-28.292 2.77-17.439 1.844-33.128-2.831-47.96-4.443-14.096-12.356-27.622-24.194-41.347A181.87 181.87 0 0 0 355.827.13h5.91c12.014 14.03 20.082 27.917 24.658 42.437a98.633 98.633 0 0 1 2.905 11.667c.732 3.967 1.23 8.064 1.483 12.179.254 4.141.264 8.433.033 12.753a130.181 130.181 0 0 1-1.44 13.397c-1.445 9.107-3.93 18.873-7.383 29.027-3.076 9.048-7.04 18.745-11.798 28.877z"/></g></g></svg>