<svg xmlns="http://www.w3.org/2000/svg" width="339" height="256" viewBox="0 0 339 256"><defs><mask id="f3egb" width="2" height="2" x="-1" y="-1"><path fill="#fff" d="M242 0h85v231h-85z"/><path d="M242.585 230.547c27.647-30.133 46.947-56.334 57.367-77.88 5.464-11.298 9.951-22.078 13.34-32.04 3.372-9.915 5.795-19.434 7.201-28.293 2.77-17.439 1.844-33.127-2.831-47.96-4.442-14.096-12.356-27.621-24.194-41.346A181.87 181.87 0 0 0 291.336.6h5.91c12.014 14.03 20.082 27.916 24.659 42.436a98.633 98.633 0 0 1 2.904 11.667c.732 3.967 1.23 8.064 1.483 12.179.254 4.142.265 8.433.033 12.753a130.181 130.181 0 0 1-1.439 13.397c-1.446 9.107-3.93 18.873-7.383 29.027-3.446 10.134-8.005 21.083-13.547 32.545-10.258 21.211-28.87 46.746-55.35 75.943z"/></mask><filter id="f3ega" width="155" height="321" x="207" y="-35" filterUnits="userSpaceOnUse"><feOffset dy="20" in="SourceGraphic" result="FeOffset1037Out"/><feGaussianBlur in="FeOffset1037Out" result="FeGaussianBlur1038Out" stdDeviation="10 10"/></filter></defs><g><g opacity=".41"><g filter="url(#f3ega)"><path fill="none" d="M242.585 230.547c27.647-30.133 46.947-56.334 57.367-77.88 5.464-11.298 9.951-22.078 13.34-32.04 3.372-9.915 5.795-19.434 7.201-28.293 2.77-17.439 1.844-33.127-2.831-47.96-4.442-14.096-12.356-27.621-24.194-41.346A181.87 181.87 0 0 0 291.336.6h5.91c12.014 14.03 20.082 27.916 24.659 42.436a98.633 98.633 0 0 1 2.904 11.667c.732 3.967 1.23 8.064 1.483 12.179.254 4.142.265 8.433.033 12.753a130.181 130.181 0 0 1-1.439 13.397c-1.446 9.107-3.93 18.873-7.383 29.027-3.446 10.134-8.005 21.083-13.547 32.545-10.258 21.211-28.87 46.746-55.35 75.943z" mask="url(&quot;#f3egb&quot;)"/><path fill-opacity=".1" d="M242.585 230.547c27.647-30.133 46.947-56.334 57.367-77.88 5.464-11.298 9.951-22.078 13.34-32.04 3.372-9.915 5.795-19.434 7.201-28.293 2.77-17.439 1.844-33.127-2.831-47.96-4.442-14.096-12.356-27.621-24.194-41.346A181.87 181.87 0 0 0 291.336.6h5.91c12.014 14.03 20.082 27.916 24.659 42.436a98.633 98.633 0 0 1 2.904 11.667c.732 3.967 1.23 8.064 1.483 12.179.254 4.142.265 8.433.033 12.753a130.181 130.181 0 0 1-1.439 13.397c-1.446 9.107-3.93 18.873-7.383 29.027-3.446 10.134-8.005 21.083-13.547 32.545-10.258 21.211-28.87 46.746-55.35 75.943z"/></g><path fill="#fff" d="M242.585 230.547c27.647-30.133 46.947-56.334 57.367-77.88 5.464-11.298 9.951-22.078 13.34-32.04 3.372-9.915 5.795-19.434 7.201-28.293 2.77-17.439 1.844-33.127-2.831-47.96-4.442-14.096-12.356-27.621-24.194-41.346A181.87 181.87 0 0 0 291.336.6h5.91c12.014 14.03 20.082 27.916 24.659 42.436a98.633 98.633 0 0 1 2.904 11.667c.732 3.967 1.23 8.064 1.483 12.179.254 4.142.265 8.433.033 12.753a130.181 130.181 0 0 1-1.439 13.397c-1.446 9.107-3.93 18.873-7.383 29.027-3.446 10.134-8.005 21.083-13.547 32.545-10.258 21.211-28.87 46.746-55.35 75.943z"/></g><g opacity=".19"><path fill="#fff" d="M0 229.19V.594h265.828c35.615 40.7 41.113 83.836 7.648 153.037-10.66 22.045-30.018 47.892-55.124 75.559z"/></g></g></svg>