<svg xmlns="http://www.w3.org/2000/svg" xmlns:xlink="http://www.w3.org/1999/xlink" width="1185.197" height="1160.214" viewBox="0 0 1185.197 1160.214">
  <defs>
    <filter id="Path_39" x="0" y="0" width="1185.197" height="1160.214" filterUnits="userSpaceOnUse">
      <feOffset dy="20" input="SourceAlpha"/>
      <feGaussianBlur stdDeviation="12.5" result="blur"/>
      <feFlood flood-opacity="0.102"/>
      <feComposite operator="in" in2="blur"/>
      <feComposite in="SourceGraphic"/>
    </filter>
  </defs>
  <g id="Group_5608" data-name="Group 5608" transform="translate(7631.5 4752.5)">
    <g transform="matrix(1, 0, 0, 1, -7631.5, -4752.5)" filter="url(#Path_39)">
      <path id="Path_39-2" data-name="Path 39" d="M-7139.53-11346.657h.01a238.546,238.546,0,0,1,45.42,4.405c7.908,1.537,15.9,3.5,23.751,5.848,8.113,2.42,16.3,5.308,24.334,8.581,12.357,5.036,29.379,12.907,50.591,23.395,20.507,10.139,44.422,22.469,71.082,36.647,53.649,28.533,115.654,63.122,174.592,97.395,64.57,37.547,123.044,73.273,169.1,103.316,25.337,16.527,46.95,31.354,64.238,44.07,18.6,13.682,32.421,25.091,41.078,33.911,9.371,9.548,17.323,18.248,24.311,26.6a255.926,255.926,0,0,1,19.15,25.732c11.4,17.714,18.336,34.623,21.191,51.693a110.611,110.611,0,0,1,1.408,13.441,114.155,114.155,0,0,1-.254,13.789,125.626,125.626,0,0,1-1.958,14.2,146.17,146.17,0,0,1-3.7,14.688,199.442,199.442,0,0,1-12.761,31.157,326.419,326.419,0,0,1-20.172,34.109c-15.293,22.838-41.33,49.451-77.389,79.1-16.625,13.671-35.451,28.029-55.956,42.678-19.62,14.017-40.978,28.442-63.478,42.878-21.686,13.911-44.563,27.915-68,41.622-22.815,13.346-46.2,26.435-69.5,38.9-22.985,12.3-45.863,23.981-68,34.721-22.156,10.75-43.518,20.53-63.491,29.071-24.525,10.486-50.052,19.983-75.873,28.228-25.093,8.012-50.6,14.885-75.808,20.429-24.772,5.448-49.319,9.627-72.958,12.42a577.51,577.51,0,0,1-67.335,4.191c-26.091,0-49.765-2.136-70.364-6.347-21.3-4.354-39.153-10.9-53.074-19.465a147.025,147.025,0,0,1-13.145-9.084,128.985,128.985,0,0,1-11.436-10.008,120.4,120.4,0,0,1-9.815-10.949,119.681,119.681,0,0,1-8.282-11.9c-9.637-15.81-16.117-34.557-19.81-57.314a303.486,303.486,0,0,1-3.431-34.7c-.544-11.719-.634-24.474-.274-38.993.706-28.442,3.136-60.9,5.565-91.711,5.532-70.146,8.155-119.918,9.057-171.8.972-55.976-.092-115.41-2.124-193.164-.521-19.968-.245-38.94.82-56.393a440.767,440.767,0,0,1,5.265-47,307.076,307.076,0,0,1,9.107-38.774,228.8,228.8,0,0,1,12.346-31.7,184.887,184.887,0,0,1,31.9-46.717,216.447,216.447,0,0,1,18.227-17.282c5.537-4.7,11.527-9.4,18.853-14.779a255.818,255.818,0,0,1,28.86-18.329,259.719,259.719,0,0,1,34.572-15.705A241.348,241.348,0,0,1-7139.53-11346.657Zm-66.37,952.224a572.4,572.4,0,0,0,66.748-4.157c23.476-2.773,47.859-6.925,72.471-12.337,25.06-5.512,50.415-12.344,75.361-20.309,25.67-8.2,51.048-17.638,75.428-28.062,19.9-8.51,41.189-18.257,63.274-28.972s44.9-22.363,67.824-34.631c23.248-12.44,46.577-25.5,69.337-38.812,23.374-13.672,46.192-27.64,67.82-41.515,22.431-14.39,43.719-28.769,63.272-42.737,20.413-14.583,39.149-28.872,55.687-42.471,35.681-29.34,61.389-55.589,76.41-78.021a321.526,321.526,0,0,0,19.863-33.581,194.361,194.361,0,0,0,12.443-30.368c5.812-18.979,7.236-36.589,4.352-53.833-2.74-16.386-9.434-32.68-20.464-49.812a251.3,251.3,0,0,0-18.781-25.23c-6.9-8.248-14.767-16.853-24.044-26.306-8.47-8.629-22.086-19.861-40.472-33.385-17.213-12.661-38.748-27.435-64.007-43.91-45.988-30-104.388-65.678-168.885-103.183-58.885-34.242-120.832-68.8-174.426-97.3-26.616-14.155-50.487-26.463-70.95-36.579-21.105-10.434-38.016-18.255-50.262-23.246a253.646,253.646,0,0,0-47.153-14.151,233.584,233.584,0,0,0-44.466-4.313h-.01a236.336,236.336,0,0,0-81.83,14.8,254.767,254.767,0,0,0-33.9,15.4,250.831,250.831,0,0,0-28.294,17.97c-7.229,5.312-13.132,9.938-18.578,14.562a211.609,211.609,0,0,0-17.811,16.885,179.985,179.985,0,0,0-31.043,45.474,223.748,223.748,0,0,0-12.073,31.008,302.085,302.085,0,0,0-8.956,38.14,435.835,435.835,0,0,0-5.2,46.462c-1.056,17.308-1.33,36.135-.812,55.957,2.034,77.821,3.1,137.316,2.125,193.381-.9,51.988-3.531,101.85-9.071,172.1-2.424,30.741-4.849,63.124-5.551,91.442-.357,14.4-.269,27.038.27,38.637a298.605,298.605,0,0,0,3.372,34.135c3.588,22.107,9.85,40.266,19.145,55.513a114.792,114.792,0,0,0,7.935,11.4,115.228,115.228,0,0,0,9.405,10.493,124.024,124.024,0,0,0,10.992,9.617,141.937,141.937,0,0,0,12.7,8.773C-7300.052-10403.1-7258.273-10394.434-7205.9-10394.434Z" transform="translate(8940.42 10361.75) rotate(-8)" fill="#fff" opacity="0.406"/>
    </g>
    <path id="Path_287" data-name="Path 287" d="M-7081.766-11327.381c-90.406-36.839-168.923-6.245-214.149,26.987s-89.732,78.374-85.9,225.38,3.334,207.076-6.242,328.511-12.771,195.224,53.47,235.968,227.411,26.01,371.594-35.641,360.8-191.679,418-277.1,39.731-134.774-24.218-199.93S-6991.358-11290.536-7081.766-11327.381Z" transform="translate(1364.096 5649.691) rotate(-8)" fill="#fff" opacity="0.192"/>
  </g>
</svg>
