<svg xmlns="http://www.w3.org/2000/svg" width="724.176" height="200.208" viewBox="0 0 724.176 200.208">
  <g id="Group_9166" data-name="Group 9166" transform="translate(-375 -6673.795)">
    <path id="Intersection_12" data-name="Intersection 12" d="M8714.351,13187.971c47.881-42.583,86.515-84.485,101.275-115.01,17.531-36.251,20.5-62.529,12.032-84.988h6.334c8.052,23.333,4.865,50.729-12.965,87.6-15.173,31.378-52.628,71.931-97.782,112.4Zm-518.266,0c-4.933-68.972-11.153-114.167-25.4-200h6.084c14.2,85.593,20.4,130.828,25.332,200Z" transform="translate(-7738.998 -6314.178)" fill="#f4f0ea"/>
    <path id="Intersection_1" data-name="Intersection 1" d="M8265,13186.587a25,25,0,0,1-25-25v-150a25,25,0,0,1,25-25h545.486c7.57,22.809,3.86,49.1-13.16,84.295-15.3,31.637-54.266,73.629-101.661,115.707Z" transform="translate(-7864.998 -6312.584)" fill="#f4f0ea"/>
  </g>
</svg>
