<svg xmlns="http://www.w3.org/2000/svg" width="1121" height="1089" viewBox="0 0 1121 1089"><g><g transform="rotate(-8 503.5 579)"><path fill="#f4f0ea" d="M381.965 132.852c-90.441-36.832-169.01-6.236-214.262 27.008-45.245 33.258-89.77 78.416-85.936 225.496 3.85 147.078 3.337 207.17-6.238 328.692-9.582 121.496-12.784 195.312 53.499 236.082 66.266 40.77 227.512 26.002 371.777-35.672 144.249-61.672 360.986-191.762 418.217-277.23 57.23-85.471 39.75-134.827-24.232-200.018-63.981-65.207-422.375-267.492-512.825-304.358z"/></g><g opacity=".5"><path fill="#f4f0ea" d="M217.28 1078.404c-58.88 0-105.778-9.704-135.623-28.06-80.018-49.22-77.06-138.581-64.94-292.286 12.19-154.582 12.642-231.064 7.866-413.807-4.763-182.465 49.781-238.102 106.056-279.45 27.499-20.205 85.079-54.103 161.757-54.1 34.5.001 69.117 6.98 102.886 20.74C509.02 77.794 958.37 331.395 1038.471 413.007c76.555 77.998 102.197 137.357 29.89 245.338-67.948 101.468-330.548 264.22-523.728 346.824-108.846 46.54-228.162 73.234-327.354 73.234zM124.807 56.866C66.434 99.756 9.852 157.295 14.738 344.508c4.766 182.343 4.316 258.64-7.84 412.775-12.42 157.541-15.313 249.219 69.6 301.45 31.398 19.31 80.08 29.519 140.781 29.519 100.474 0 221.2-26.981 331.226-74.026 168.028-71.849 452.752-237.972 528.039-350.4 75.653-112.977 47.456-177.737-31.045-257.717-80.686-82.208-532.285-337.239-646.5-383.789C364.044 8.077 328.177.854 292.396.853h-.011c-79.48 0-139.109 35.093-167.577 56.013z"/></g></g></svg>