<svg xmlns="http://www.w3.org/2000/svg" width="37" height="38" viewBox="0 0 37 38"><g><g><path fill="#fff" d="M16.215 26.292c1.316-.185 2.92-.791 4.293-1.621 2.492-1.505 5.922-4.354 6.607-5.77.427-.881.32-1.223.284-1.336-.097-.302-.392-.63-.958-1.062-1.151-.886-8.103-3.658-9.875-4.105a3.23 3.23 0 0 0-.792-.102c-.137 0-.272.01-.402.03-.855.12-1.457.597-1.74.87-.497.485-1.116 1.088-.711 3.501.453 2.712.606 3.852.746 6.177.145 2.323.293 3.046 1 3.355.105.044.348.12.797.12.226 0 .478-.019.75-.057zm-.43-15.995c.422 0 .85.055 1.273.161 1.7.432 9.036 3.254 10.603 4.459 1.364 1.049 2.46 2.362 1.257 4.852-1.001 2.073-4.992 5.171-7.373 6.613-1.618.98-3.46 1.669-5.052 1.892-.364.051-.71.077-1.028.077-.625 0-1.163-.098-1.6-.29-.891-.39-1.48-1.074-1.796-2.094-.243-.779-.316-1.683-.4-2.972-.132-2.21-.28-3.314-.72-5.969-.508-3.023.318-4.314 1.285-5.26.459-.446 1.44-1.223 2.86-1.42a5 5 0 0 1 .69-.05zm9.916 25.93a18.45 18.45 0 0 0 5.88-3.964A18.433 18.433 0 0 0 37 19.18 18.434 18.434 0 0 0 31.581 6.1a18.428 18.428 0 0 0-5.88-3.964A18.384 18.384 0 0 0 18.5.682c-2.498 0-4.92.489-7.2 1.454A18.43 18.43 0 0 0 5.418 6.1 18.441 18.441 0 0 0 0 19.18a18.45 18.45 0 0 0 5.418 13.082A18.457 18.457 0 0 0 18.5 37.682c2.498 0 4.92-.49 7.201-1.454z"/></g></g></svg>