<svg xmlns="http://www.w3.org/2000/svg" width="61" height="61" viewBox="0 0 61 61">
  <g id="Group_9179" data-name="Group 9179" transform="translate(-2262 13550)">
    <circle id="Ellipse_552" data-name="Ellipse 552" cx="30.5" cy="30.5" r="30.5" transform="translate(2262 -13550)" fill="#f2a900"/>
    <g id="phone-call-svgrepo-com" transform="translate(2276.298 -13533.034)">
      <g id="Group_9100" data-name="Group 9100" transform="translate(0.344 0)">
        <path id="Path_68239" data-name="Path 68239" d="M23.933,44.184a2.938,2.938,0,0,0-2.131-.977,3.038,3.038,0,0,0-2.156.971l-1.992,1.986c-.164-.088-.328-.17-.486-.252-.227-.113-.441-.221-.624-.334a21.656,21.656,0,0,1-5.189-4.729,12.776,12.776,0,0,1-1.7-2.686c.517-.473,1-.965,1.463-1.438.177-.177.353-.359.53-.536a2.893,2.893,0,0,0,0-4.363L9.923,30.1c-.2-.2-.4-.4-.586-.6-.378-.391-.776-.794-1.185-1.173a2.985,2.985,0,0,0-2.112-.927,3.089,3.089,0,0,0-2.144.927l-.013.013L1.739,30.508A4.613,4.613,0,0,0,.37,33.44a11.053,11.053,0,0,0,.807,4.679A27.149,27.149,0,0,0,6,46.164a29.672,29.672,0,0,0,9.88,7.737A15.394,15.394,0,0,0,21.43,55.54c.132.006.271.013.4.013a4.751,4.751,0,0,0,3.638-1.564c.006-.013.019-.019.025-.032a14.336,14.336,0,0,1,1.1-1.141c.271-.259.549-.53.82-.813a3.145,3.145,0,0,0,.952-2.182,3.03,3.03,0,0,0-.971-2.163Zm2.257,6.64c-.006,0-.006.006,0,0-.246.265-.5.5-.769.769A16.58,16.58,0,0,0,24.2,52.854a3.04,3.04,0,0,1-2.371,1c-.095,0-.2,0-.29-.006a13.676,13.676,0,0,1-4.918-1.475,28.009,28.009,0,0,1-9.307-7.289,25.6,25.6,0,0,1-4.54-7.56,9,9,0,0,1-.706-3.947,2.894,2.894,0,0,1,.87-1.873l2.15-2.15a1.433,1.433,0,0,1,.958-.448,1.349,1.349,0,0,1,.921.441l.019.019c.385.359.75.731,1.135,1.129.2.2.4.4.6.612l1.721,1.721a1.2,1.2,0,0,1,0,1.955c-.183.183-.359.366-.542.542-.53.542-1.034,1.047-1.583,1.538-.013.013-.025.019-.032.032a1.286,1.286,0,0,0-.328,1.431l.019.057a13.82,13.82,0,0,0,2.037,3.323l.006.006a23.143,23.143,0,0,0,5.6,5.095,8.609,8.609,0,0,0,.776.422c.227.113.441.221.624.334.025.013.05.032.076.044a1.367,1.367,0,0,0,.624.158,1.348,1.348,0,0,0,.958-.435l2.156-2.156a1.426,1.426,0,0,1,.952-.473,1.284,1.284,0,0,1,.908.46l.013.013,3.474,3.474A1.247,1.247,0,0,1,26.191,50.824Z" transform="translate(-0.344 -25.678)" fill="#fff"/>
        <path id="Path_68240" data-name="Path 68240" d="M245.644,87.614a8.115,8.115,0,0,1,6.608,6.608.846.846,0,0,0,.839.706,1.124,1.124,0,0,0,.145-.013.852.852,0,0,0,.7-.984,9.812,9.812,0,0,0-8-8,.856.856,0,0,0-.984.694A.842.842,0,0,0,245.644,87.614Z" transform="translate(-229.521 -80.507)" fill="#fff"/>
        <path id="Path_68241" data-name="Path 68241" d="M262.93,13.179A16.157,16.157,0,0,0,249.764.013a.85.85,0,1,0-.277,1.677,14.432,14.432,0,0,1,11.766,11.766.846.846,0,0,0,.839.706,1.126,1.126,0,0,0,.145-.013A.835.835,0,0,0,262.93,13.179Z" transform="translate(-233.111 0)" fill="#fff"/>
      </g>
    </g>
  </g>
</svg>
