<svg xmlns="http://www.w3.org/2000/svg" width="61" height="61" viewBox="0 0 61 61">
  <g id="Group_9105" data-name="Group 9105" transform="translate(-187 -611)">
    <circle id="Ellipse_552" data-name="Ellipse 552" cx="30.5" cy="30.5" r="30.5" transform="translate(187 611)" fill="#f2a900"/>
    <g id="mail-svgrepo-com" transform="translate(203.057 572.571)">
      <path id="Path_68242" data-name="Path 68242" d="M26.661,59.3H2.224A2.229,2.229,0,0,0,0,61.524v17.21a2.229,2.229,0,0,0,2.224,2.224H26.661a2.229,2.229,0,0,0,2.224-2.224V61.524A2.229,2.229,0,0,0,26.661,59.3Zm-.323,1.645L14.6,70.988,2.852,60.945Zm.9,17.788a.583.583,0,0,1-.579.579H2.224a.583.583,0,0,1-.579-.579V62.079L14.059,72.695c.006.006.018.012.024.018s.018.012.024.018a.214.214,0,0,0,.049.03c.006.006.012.006.018.012l.073.037c.006,0,.012.006.018.006a.632.632,0,0,0,.061.024c.006,0,.018.006.024.006a.178.178,0,0,0,.055.012c.006,0,.018.006.024.006s.043.006.061.012h.018c.024,0,.055.006.079.006h0a.348.348,0,0,0,.079-.006h.018a.216.216,0,0,0,.061-.012c.006,0,.018-.006.024-.006a.178.178,0,0,1,.055-.012c.006,0,.018-.006.024-.006a.42.42,0,0,0,.061-.024c.006,0,.012-.006.018-.006L15,72.774c.006-.006.012-.006.018-.012l.049-.03c.006-.006.018-.012.024-.018s.018-.012.024-.018L27.24,62.341Z" fill="#fff"/>
    </g>
  </g>
</svg>
