<svg xmlns="http://www.w3.org/2000/svg" width="99.282" height="96.469" viewBox="0 0 99.282 96.469">
  <g id="Group_9120" data-name="Group 9120" transform="translate(-1213 -657.766)">
    <path id="Path_68247" data-name="Path 68247" d="M-7338.657-11338.916c-12.413-6.029-30.034-7.277-37.4-4.671a25.107,25.107,0,0,0-16.264,24.623c.325,13.794.561,14.9-.248,26.292s18.977,29,39.682,21.464,33.512-5.8,39.111-25.183S-7326.244-11332.888-7338.657-11338.916Z" transform="translate(-9224.253 -7775.625) rotate(162)" fill="#f4f0ea"/>
    <g id="Group_9110" data-name="Group 9110" transform="translate(1244.755 684.353)" opacity="0.722">
      <path id="Path_162" data-name="Path 162" d="M943.677,133.8h-14A11.686,11.686,0,0,0,918,145.479v14a11.686,11.686,0,0,0,11.679,11.679h14a11.686,11.686,0,0,0,11.679-11.679v-14A11.686,11.686,0,0,0,943.677,133.8Zm8.169,25.678a8.183,8.183,0,0,1-8.169,8.169h-14a8.183,8.183,0,0,1-8.169-8.169v-14a8.183,8.183,0,0,1,8.169-8.169h14a8.183,8.183,0,0,1,8.169,8.169Z" transform="translate(-918 -133.8)" fill="#f2a927"/>
      <path id="Path_163" data-name="Path 163" d="M974.439,180.9a9.339,9.339,0,1,0,9.339,9.339A9.342,9.342,0,0,0,974.439,180.9Zm0,15.169a5.829,5.829,0,1,1,5.829-5.829A5.839,5.839,0,0,1,974.439,196.069Z" transform="translate(-955.76 -171.561)" fill="#f2a927"/>
      <ellipse id="Ellipse_13" data-name="Ellipse 13" cx="1.249" cy="1.249" rx="1.249" ry="1.249" transform="translate(27.462 7.396)" fill="#f2a927"/>
    </g>
  </g>
</svg>
