<svg xmlns="http://www.w3.org/2000/svg" xmlns:xlink="http://www.w3.org/1999/xlink" width="84.232" height="78.837" viewBox="0 0 84.232 78.837">
  <defs>
    <clipPath id="clip-path">
      <rect id="Rectangle_1908" data-name="Rectangle 1908" width="39.24" height="27.859" transform="translate(0)" fill="#f2a927"/>
    </clipPath>
  </defs>
  <g id="Group_9121" data-name="Group 9121" transform="translate(-1330.001 -668.836)">
    <path id="Path_68250" data-name="Path 68250" d="M-7342.129-11338.313c-11.614-6.639-28.1-8.014-35-5.144s-15.52,11.921-15.217,27.115.524,16.4-.232,28.952,14.2,29,33.578,20.7,34.905-3.449,40.144-24.8S-7330.515-11331.675-7342.129-11338.313Z" transform="translate(-9532.106 8645.051) rotate(87)" fill="#f4f0ea"/>
    <g id="Group_9111" data-name="Group 9111" transform="translate(1352.003 689.353)" opacity="0.722" clip-path="url(#clip-path)">
      <path id="Path_68251" data-name="Path 68251" d="M1716.213,160.479c-1.408-1.685-4.025-2.379-9.022-2.379h-18.143c-5.116,0-7.773.734-9.181,2.518-1.368,1.745-1.368,4.323-1.368,7.892v6.8c0,6.9,1.626,10.41,10.569,10.41h18.143c4.342,0,6.742-.615,8.288-2.1,1.586-1.527,2.28-4.005,2.28-8.328v-6.8c-.04-3.728-.139-6.325-1.566-8.011Zm-12.531,12.373-8.229,4.3a1.2,1.2,0,0,1-.595.139,1.3,1.3,0,0,1-.654-.178,1.281,1.281,0,0,1-.615-1.091v-8.586a1.307,1.307,0,0,1,.615-1.091,1.274,1.274,0,0,1,1.249-.04l8.229,4.283a1.271,1.271,0,0,1,.674,1.13,1.235,1.235,0,0,1-.674,1.13Zm0,0" transform="translate(-1678.479 -158.041)" fill="#f2a927"/>
    </g>
  </g>
</svg>
