<svg xmlns="http://www.w3.org/2000/svg" width="81" height="77" viewBox="0 0 81 77"><g><g transform="rotate(87 40.5 38.5)"><path fill="#fff" d="M54.222 4.894C42.608-1.745 26.122-3.12 19.227-.25 12.332 2.62 3.707 11.671 4.01 26.865c.304 15.19.524 16.404-.232 28.953-.757 12.55 14.204 28.995 33.578 20.702C56.729 68.227 72.26 73.07 77.5 51.723c5.238-21.348-11.664-40.19-23.278-46.83z"/></g><g clip-path="url(#clip-bf1cf5ce-03f9-4638-992f-a8bf6112bc6f)" opacity=".72"><path fill="#f2a927" d="M46.204 34.457l-8.229 4.303c-.178.1-.376.139-.594.139a1.3 1.3 0 0 1-.655-.179 1.281 1.281 0 0 1-.615-1.09v-8.586c0-.436.238-.853.615-1.09.377-.238.853-.238 1.25-.04l8.228 4.283c.416.218.674.654.674 1.13.02.476-.258.912-.674 1.13zm12.531-12.373c-1.407-1.685-4.025-2.379-9.021-2.379H31.57c-5.116 0-7.773.734-9.18 2.518-1.369 1.745-1.369 4.323-1.369 7.892v6.8c0 6.901 1.626 10.41 10.569 10.41h18.143c4.342 0 6.741-.614 8.288-2.101 1.586-1.527 2.28-4.005 2.28-8.328v-6.801c-.04-3.728-.139-6.325-1.567-8.01z"/></g></g></svg>