<svg xmlns="http://www.w3.org/2000/svg" width="75" height="77" viewBox="0 0 75 77"><g><g transform="rotate(-8 37.5 38.5)"><path fill="#fff" d="M29.66-.618c-8.043-3.278-15.028-.556-19.053 2.401C6.584 4.74 2.624 8.755 2.966 21.835c.341 13.078.296 18.423-.556 29.227-.852 10.804-1.136 17.368 4.757 20.994 5.894 3.624 20.233 2.313 33.06-3.171 12.828-5.485 26.16-17.892 31.248-25.491 5.09-7.6 3.535-11.991-2.154-17.788C63.63 19.809 37.703 2.66 29.66-.618z"/></g><g opacity=".72"><path fill="#f2a927" d="M19.377 50.229h6.642V30.282h-6.642zm3.37-29.584c-2.26 0-3.747 1.487-3.747 3.45 0 1.924 1.447 3.45 3.668 3.45h.04c2.32 0 3.747-1.526 3.747-3.45-.04-1.963-1.447-3.45-3.707-3.45zm27.205 18.143c0-6.127-3.292-8.982-7.634-8.962-3.53 0-5.116 1.943-5.988 3.291v.06h-.04c0-.02.02-.04.04-.06v-2.835h-6.643c.08 1.864 0 19.947 0 19.947h6.643V39.085c0-.614.04-1.19.218-1.626.496-1.19 1.586-2.419 3.41-2.419 2.4 0 3.351 1.844 3.351 4.521V50.23h6.643V38.788z"/></g></g></svg>