<svg xmlns="http://www.w3.org/2000/svg" width="18" height="18" viewBox="0 0 18 18">
  <path id="Path_68332" data-name="Path 68332" d="M8.037-4.127,4.458-5.662A1.606,1.606,0,0,0,2.6-5.2L1.438-3.78a11.061,11.061,0,0,1-4.405-4.4l1.425-1.167a1.584,1.584,0,0,0,.451-1.858l-1.531-3.579a1.6,1.6,0,0,0-1.821-.922l-3.32.77A1.581,1.581,0,0,0-9-13.39,15.659,15.659,0,0,0,6.641,2.25,1.586,1.586,0,0,0,8.194,1.015L8.96-2.306A1.6,1.6,0,0,0,8.037-4.127ZM7.1.763a.472.472,0,0,1-.456.362A14.531,14.531,0,0,1-7.874-13.391a.463.463,0,0,1,.364-.453l3.319-.77a.459.459,0,0,1,.1-.012.47.47,0,0,1,.431.282l1.532,3.575a.471.471,0,0,1-.133.548L-4.032-8.764a.562.562,0,0,0-.148.682A12.177,12.177,0,0,0,1.336-2.566a.562.562,0,0,0,.683-.148L3.474-4.49a.474.474,0,0,1,.545-.135L7.591-3.094a.47.47,0,0,1,.271.535Z" transform="translate(9 15.75)" fill="#3a3836"/>
</svg>
