<svg xmlns="http://www.w3.org/2000/svg" width="67" height="68" viewBox="0 0 67 68"><g><g><g><path fill="#f9d480" d="M53.217 28.09v-5.421h-5.42a2.5 2.5 0 1 1 0-4.998h5.42V12.25a2.5 2.5 0 1 1 4.999 0v5.42h5.42a2.5 2.5 0 1 1 0 4.999h-5.42v5.42a2.5 2.5 0 1 1-4.999 0z"/></g><g><path fill="#f9d480" d="M10 .17c5.523 0 10 4.477 10 10s-4.477 10-10 10-10-4.477-10-10 4.477-10 10-10zm0 5c-2.757 0-5 2.243-5 5s2.243 5 5 5 5-2.243 5-5-2.243-5-5-5"/></g><g><path fill="#f9d480" d="M12.296 45.809c1.009 0 2.018.498 2.596 1.494l9.291 16.02c1.16 2-.283 4.506-2.595 4.506H3.004C.692 67.83-.75 65.324.41 63.324l9.292-16.02a2.972 2.972 0 0 1 2.595-1.495zm0 6.986l-5.82 10.034h11.64l-5.82-10.034"/></g></g></g></svg>