<svg id="Component_34_3" data-name="Component 34 – 3" xmlns="http://www.w3.org/2000/svg" width="63.297" height="67.659" viewBox="0 0 63.297 67.659">
  <path id="Union_1" data-name="Union 1" d="M2591.922,12740.341v-5.421H2586.5a2.5,2.5,0,1,1,0-5h5.421v-5.421a2.5,2.5,0,1,1,5,0v5.421h5.421a2.5,2.5,0,1,1,0,5h-5.421v5.421a2.5,2.5,0,1,1-5,0Z" transform="translate(-2584.001 -12712.421)" fill="#f9d480"/>
  <path id="Ellipse_14" data-name="Ellipse 14" d="M10,5a5,5,0,1,0,5,5,5.006,5.006,0,0,0-5-5m0-5A10,10,0,1,1,0,10,10,10,0,0,1,10,0Z" transform="translate(38.704)" fill="#f9d480"/>
  <path id="Polygon_1" data-name="Polygon 1" d="M14.5,9.966,8.68,20H20.32L14.5,9.966m0-6.986a2.972,2.972,0,0,1,2.6,1.495l9.292,16.021A3,3,0,0,1,23.792,25H5.208a3,3,0,0,1-2.6-4.505L11.9,4.474A2.972,2.972,0,0,1,14.5,2.979Z" transform="translate(36.501 42.659)" fill="#f9d480"/>
</svg>
